<svg width="665" height="507" viewBox="0 0 665 507" fill="none" xmlns="http://www.w3.org/2000/svg">
<path d="M400.028 253.465L396.153 225.88L450.01 107.2L473.792 103.859L479.156 142.041L465.081 144.018L431.172 219.146L431.354 220.44L529.64 206.633L533.584 234.703L400.028 253.465ZM483.638 271.416L478.365 233.881L477.296 221.575L461.011 105.655L493.854 101.041L517.128 266.711L483.638 271.416Z" fill="#282828"/>
<path d="M326.994 89.1873C375.576 89.1873 414.959 128.57 414.959 177.152C414.959 225.726 375.576 265.1 326.994 265.1C278.412 265.1 239.047 225.726 239.047 177.152C239.038 128.57 278.412 89.1873 326.994 89.1873ZM326.994 190.327C319.968 190.315 313.012 191.712 306.534 194.434C300.057 197.156 294.191 201.148 289.282 206.175C288.676 206.794 288.198 207.526 287.874 208.33C287.551 209.134 287.389 209.994 287.398 210.861C287.407 211.727 287.587 212.583 287.927 213.38C288.267 214.177 288.76 214.9 289.379 215.506C289.998 216.112 290.731 216.591 291.535 216.914C292.339 217.238 293.198 217.399 294.065 217.39C294.931 217.381 295.788 217.202 296.585 216.862C297.382 216.522 298.104 216.028 298.71 215.409C302.395 211.641 306.794 208.647 311.651 206.602C316.508 204.557 321.724 203.503 326.994 203.501C337.768 203.501 347.838 207.811 355.234 215.348C355.842 215.966 356.565 216.458 357.363 216.796C358.16 217.135 359.017 217.313 359.883 217.32C360.75 217.327 361.609 217.164 362.413 216.839C363.216 216.514 363.948 216.034 364.565 215.427C365.183 214.819 365.675 214.096 366.014 213.298C366.352 212.501 366.53 211.644 366.538 210.778C366.545 209.911 366.381 209.052 366.057 208.248C365.732 207.445 365.252 206.714 364.645 206.096C359.739 201.089 353.882 197.113 347.418 194.402C340.954 191.691 334.013 190.299 327.003 190.309M300.61 148.569C299.141 148.528 297.678 148.781 296.309 149.315C294.939 149.848 293.69 150.651 292.636 151.676C291.582 152.7 290.745 153.926 290.173 155.28C289.6 156.634 289.306 158.089 289.306 159.558C289.306 161.028 289.6 162.483 290.173 163.837C290.745 165.191 291.582 166.417 292.636 167.441C293.69 168.466 294.939 169.268 296.309 169.802C297.678 170.335 299.141 170.589 300.61 170.547C303.471 170.466 306.187 169.273 308.182 167.221C310.177 165.169 311.293 162.42 311.293 159.558C311.293 156.697 310.177 153.948 308.182 151.896C306.187 149.844 303.471 148.65 300.61 148.569ZM353.378 148.569C351.909 148.528 350.447 148.781 349.077 149.315C347.707 149.848 346.459 150.651 345.405 151.676C344.351 152.7 343.513 153.926 342.941 155.28C342.369 156.634 342.074 158.089 342.074 159.558C342.074 161.028 342.369 162.483 342.941 163.837C343.513 165.191 344.351 166.417 345.405 167.441C346.459 168.466 347.707 169.268 349.077 169.802C350.447 170.335 351.909 170.589 353.378 170.547C356.239 170.466 358.955 169.273 360.95 167.221C362.945 165.169 364.061 162.42 364.061 159.558C364.061 156.697 362.945 153.948 360.95 151.896C358.955 149.844 356.239 148.65 353.378 148.569Z" fill="#4F8F92"/>
<path d="M120.696 231.592V203.737L190.539 93.7029H214.555V132.26H200.342L156.312 201.94V203.247H255.563V231.592H120.696ZM200.995 261V223.097L201.649 210.762V93.7029H234.814V261H200.995Z" fill="#282828"/>
<path d="M374.861 38.7273C374.861 43.8485 373.876 48.1894 371.906 51.75C369.937 55.3106 367.27 58.0152 363.906 59.8636C360.558 61.7121 356.8 62.6364 352.634 62.6364C348.452 62.6364 344.687 61.7045 341.338 59.8409C337.99 57.9773 335.33 55.2727 333.361 51.7273C331.406 48.1667 330.429 43.8333 330.429 38.7273C330.429 33.6061 331.406 29.2652 333.361 25.7045C335.33 22.1439 337.99 19.4394 341.338 17.5909C344.687 15.7424 348.452 14.8182 352.634 14.8182C356.8 14.8182 360.558 15.7424 363.906 17.5909C367.27 19.4394 369.937 22.1439 371.906 25.7045C373.876 29.2652 374.861 33.6061 374.861 38.7273ZM363.361 38.7273C363.361 35.697 362.929 33.1364 362.065 31.0455C361.217 28.9545 359.99 27.3712 358.384 26.2955C356.793 25.2197 354.876 24.6818 352.634 24.6818C350.406 24.6818 348.49 25.2197 346.884 26.2955C345.277 27.3712 344.043 28.9545 343.179 31.0455C342.33 33.1364 341.906 35.697 341.906 38.7273C341.906 41.7576 342.33 44.3182 343.179 46.4091C344.043 48.5 345.277 50.0833 346.884 51.1591C348.49 52.2348 350.406 52.7727 352.634 52.7727C354.876 52.7727 356.793 52.2348 358.384 51.1591C359.99 50.0833 361.217 48.5 362.065 46.4091C362.929 44.3182 363.361 41.7576 363.361 38.7273ZM397.724 62.6591C394.058 62.6591 390.906 61.9091 388.27 60.4091C385.649 58.8939 383.626 56.7879 382.202 54.0909C380.793 51.3788 380.088 48.2348 380.088 44.6591C380.088 41.0682 380.793 37.9242 382.202 35.2273C383.626 32.5152 385.649 30.4091 388.27 28.9091C390.906 27.3939 394.058 26.6364 397.724 26.6364C401.391 26.6364 404.535 27.3939 407.156 28.9091C409.793 30.4091 411.815 32.5152 413.224 35.2273C414.649 37.9242 415.361 41.0682 415.361 44.6591C415.361 48.2348 414.649 51.3788 413.224 54.0909C411.815 56.7879 409.793 58.8939 407.156 60.4091C404.535 61.9091 401.391 62.6591 397.724 62.6591ZM397.793 54.2727C399.126 54.2727 400.255 53.8636 401.179 53.0455C402.103 52.2273 402.808 51.0909 403.293 49.6364C403.793 48.1818 404.043 46.5 404.043 44.5909C404.043 42.6515 403.793 40.9545 403.293 39.5C402.808 38.0455 402.103 36.9091 401.179 36.0909C400.255 35.2727 399.126 34.8636 397.793 34.8636C396.414 34.8636 395.247 35.2727 394.293 36.0909C393.353 36.9091 392.634 38.0455 392.134 39.5C391.649 40.9545 391.406 42.6515 391.406 44.5909C391.406 46.5 391.649 48.1818 392.134 49.6364C392.634 51.0909 393.353 52.2273 394.293 53.0455C395.247 53.8636 396.414 54.2727 397.793 54.2727ZM421.054 75.0909V27.0909H432.054V33.0682H432.395C432.849 32.0076 433.493 30.9848 434.327 30C435.175 29.0152 436.251 28.2121 437.554 27.5909C438.872 26.9545 440.448 26.6364 442.281 26.6364C444.705 26.6364 446.971 27.2727 449.077 28.5455C451.198 29.8182 452.91 31.7803 454.213 34.4318C455.516 37.0833 456.168 40.4621 456.168 44.5682C456.168 48.5227 455.539 51.8333 454.281 54.5C453.039 57.1667 451.357 59.1667 449.236 60.5C447.13 61.8333 444.789 62.5 442.213 62.5C440.455 62.5 438.933 62.2121 437.645 61.6364C436.357 61.0606 435.274 60.303 434.395 59.3636C433.531 58.4242 432.865 57.4167 432.395 56.3409H432.168V75.0909H421.054ZM431.94 44.5455C431.94 46.4242 432.19 48.0606 432.69 49.4545C433.205 50.8485 433.94 51.9318 434.895 52.7045C435.865 53.4621 437.024 53.8409 438.372 53.8409C439.736 53.8409 440.895 53.4621 441.849 52.7045C442.804 51.9318 443.524 50.8485 444.009 49.4545C444.509 48.0606 444.759 46.4242 444.759 44.5455C444.759 42.6667 444.509 41.0379 444.009 39.6591C443.524 38.2803 442.804 37.2121 441.849 36.4545C440.91 35.697 439.751 35.3182 438.372 35.3182C437.009 35.3182 435.849 35.6894 434.895 36.4318C433.94 37.1742 433.205 38.2348 432.69 39.6136C432.19 40.9924 431.94 42.6364 431.94 44.5455ZM492.469 37.75L482.264 38.0227C482.158 37.2955 481.87 36.6515 481.401 36.0909C480.931 35.5152 480.317 35.0682 479.56 34.75C478.817 34.4167 477.954 34.25 476.969 34.25C475.681 34.25 474.582 34.5076 473.673 35.0227C472.779 35.5379 472.34 36.2348 472.355 37.1136C472.34 37.7955 472.613 38.3864 473.173 38.8864C473.749 39.3864 474.772 39.7879 476.241 40.0909L482.969 41.3636C486.454 42.0303 489.045 43.1364 490.741 44.6818C492.454 46.2273 493.317 48.2727 493.332 50.8182C493.317 53.2121 492.605 55.2955 491.196 57.0682C489.802 58.8409 487.893 60.2197 485.469 61.2045C483.045 62.1742 480.272 62.6591 477.151 62.6591C472.166 62.6591 468.234 61.6364 465.355 59.5909C462.491 57.5303 460.855 54.7727 460.446 51.3182L471.423 51.0455C471.666 52.3182 472.295 53.2879 473.31 53.9545C474.325 54.6212 475.62 54.9545 477.196 54.9545C478.62 54.9545 479.779 54.6894 480.673 54.1591C481.567 53.6288 482.022 52.9242 482.037 52.0455C482.022 51.2576 481.673 50.6288 480.991 50.1591C480.31 49.6742 479.241 49.2955 477.787 49.0227L471.696 47.8636C468.196 47.2273 465.59 46.053 463.878 44.3409C462.166 42.6136 461.317 40.4167 461.332 37.75C461.317 35.4167 461.938 33.4242 463.196 31.7727C464.454 30.1061 466.241 28.8333 468.56 27.9545C470.878 27.0758 473.613 26.6364 476.764 26.6364C481.491 26.6364 485.219 27.6288 487.946 29.6136C490.673 31.5833 492.181 34.2955 492.469 37.75ZM511.872 15.4545L510.827 47.75H501.486L500.44 15.4545H511.872ZM506.145 62.6591C504.524 62.6591 503.13 62.0833 501.963 60.9318C500.812 59.7803 500.236 58.3864 500.236 56.75C500.236 55.1439 500.812 53.7727 501.963 52.6364C503.13 51.4848 504.524 50.9091 506.145 50.9091C507.705 50.9091 509.077 51.4848 510.259 52.6364C511.455 53.7727 512.054 55.1439 512.054 56.75C512.054 57.8409 511.774 58.8333 511.213 59.7273C510.668 60.6212 509.948 61.3333 509.054 61.8636C508.175 62.3939 507.205 62.6591 506.145 62.6591Z" fill="#282828"/>
<path d="M77.9773 359.274C77.8182 357.785 77.1477 356.626 75.9659 355.796C74.7955 354.967 73.2727 354.552 71.3977 354.552C70.0795 354.552 68.9489 354.751 68.0057 355.149C67.0625 355.546 66.3409 356.086 65.8409 356.768C65.3409 357.45 65.0852 358.228 65.0739 359.103C65.0739 359.83 65.2386 360.461 65.5682 360.995C65.9091 361.529 66.3693 361.984 66.9489 362.359C67.5284 362.723 68.1705 363.029 68.875 363.279C69.5795 363.529 70.2898 363.74 71.0057 363.91L74.2784 364.728C75.5966 365.035 76.8636 365.45 78.0795 365.973C79.3068 366.495 80.4034 367.154 81.3693 367.95C82.3466 368.745 83.1193 369.705 83.6875 370.83C84.2557 371.955 84.5398 373.274 84.5398 374.785C84.5398 376.83 84.017 378.632 82.9716 380.188C81.9261 381.734 80.4148 382.944 78.4375 383.819C76.4716 384.683 74.0909 385.115 71.2955 385.115C68.5795 385.115 66.2216 384.694 64.2216 383.853C62.233 383.012 60.6761 381.785 59.5511 380.171C58.4375 378.558 57.8352 376.592 57.7443 374.274H63.9659C64.0568 375.49 64.4318 376.501 65.0909 377.308C65.75 378.115 66.608 378.717 67.6648 379.115C68.733 379.512 69.9261 379.711 71.2443 379.711C72.6193 379.711 73.8239 379.507 74.858 379.098C75.9034 378.677 76.7216 378.098 77.3125 377.359C77.9034 376.609 78.2045 375.734 78.2159 374.734C78.2045 373.825 77.9375 373.075 77.4148 372.484C76.892 371.882 76.1591 371.382 75.2159 370.984C74.2841 370.575 73.1932 370.211 71.9432 369.893L67.9716 368.87C65.0966 368.132 62.8239 367.012 61.1534 365.512C59.4943 364.001 58.6648 361.995 58.6648 359.495C58.6648 357.438 59.2216 355.637 60.3352 354.092C61.4602 352.546 62.9886 351.348 64.9205 350.495C66.8523 349.632 69.0398 349.2 71.483 349.2C73.9602 349.2 76.1307 349.632 77.9943 350.495C79.8693 351.348 81.3409 352.535 82.4091 354.058C83.4773 355.569 84.0284 357.308 84.0625 359.274H77.9773ZM101.325 385.098C98.7685 385.098 96.5526 384.535 94.6776 383.41C92.8026 382.285 91.348 380.711 90.3139 378.688C89.2912 376.666 88.7798 374.302 88.7798 371.598C88.7798 368.893 89.2912 366.524 90.3139 364.49C91.348 362.455 92.8026 360.876 94.6776 359.751C96.5526 358.626 98.7685 358.063 101.325 358.063C103.882 358.063 106.098 358.626 107.973 359.751C109.848 360.876 111.297 362.455 112.32 364.49C113.354 366.524 113.871 368.893 113.871 371.598C113.871 374.302 113.354 376.666 112.32 378.688C111.297 380.711 109.848 382.285 107.973 383.41C106.098 384.535 103.882 385.098 101.325 385.098ZM101.359 380.154C102.746 380.154 103.905 379.774 104.837 379.012C105.768 378.24 106.462 377.205 106.916 375.91C107.382 374.615 107.615 373.171 107.615 371.58C107.615 369.978 107.382 368.529 106.916 367.234C106.462 365.927 105.768 364.887 104.837 364.115C103.905 363.342 102.746 362.955 101.359 362.955C99.9389 362.955 98.7571 363.342 97.8139 364.115C96.8821 364.887 96.1832 365.927 95.7173 367.234C95.2628 368.529 95.0355 369.978 95.0355 371.58C95.0355 373.171 95.2628 374.615 95.7173 375.91C96.1832 377.205 96.8821 378.24 97.8139 379.012C98.7571 379.774 99.9389 380.154 101.359 380.154ZM119.108 384.586V358.404H125.091V362.768H125.364C125.841 361.257 126.659 360.092 127.818 359.274C128.989 358.444 130.324 358.029 131.824 358.029C132.165 358.029 132.545 358.046 132.966 358.08C133.398 358.103 133.756 358.143 134.04 358.2V363.876C133.778 363.785 133.364 363.705 132.795 363.637C132.239 363.558 131.699 363.518 131.176 363.518C130.051 363.518 129.04 363.762 128.142 364.251C127.256 364.728 126.557 365.393 126.045 366.245C125.534 367.098 125.278 368.08 125.278 369.194V384.586H119.108ZM138.139 384.586V358.404H144.122V362.768H144.395C144.872 361.257 145.69 360.092 146.849 359.274C148.02 358.444 149.355 358.029 150.855 358.029C151.196 358.029 151.577 358.046 151.997 358.08C152.429 358.103 152.787 358.143 153.071 358.2V363.876C152.81 363.785 152.395 363.705 151.827 363.637C151.27 363.558 150.73 363.518 150.207 363.518C149.082 363.518 148.071 363.762 147.173 364.251C146.287 364.728 145.588 365.393 145.077 366.245C144.565 367.098 144.31 368.08 144.31 369.194V384.586H138.139ZM161.803 394.404C160.962 394.404 160.183 394.336 159.467 394.2C158.763 394.075 158.2 393.927 157.78 393.757L159.212 388.95C160.109 389.211 160.911 389.336 161.615 389.325C162.32 389.313 162.939 389.092 163.473 388.66C164.018 388.24 164.479 387.535 164.854 386.546L165.382 385.132L155.888 358.404H162.433L168.467 378.177H168.74L174.791 358.404H181.354L170.871 387.757C170.382 389.143 169.734 390.33 168.928 391.319C168.121 392.319 167.132 393.081 165.962 393.603C164.803 394.137 163.416 394.404 161.803 394.404ZM210.791 358.404V363.177H195.314V358.404H210.791ZM199.183 384.586V355.933C199.183 354.171 199.547 352.705 200.274 351.535C201.013 350.365 202.001 349.49 203.24 348.91C204.479 348.33 205.854 348.041 207.365 348.041C208.433 348.041 209.382 348.126 210.212 348.296C211.041 348.467 211.655 348.62 212.053 348.757L210.825 353.529C210.564 353.45 210.234 353.37 209.837 353.291C209.439 353.2 208.996 353.154 208.507 353.154C207.359 353.154 206.547 353.433 206.07 353.99C205.604 354.535 205.371 355.319 205.371 356.342V384.586H199.183ZM226.06 385.098C223.503 385.098 221.287 384.535 219.412 383.41C217.537 382.285 216.082 380.711 215.048 378.688C214.026 376.666 213.514 374.302 213.514 371.598C213.514 368.893 214.026 366.524 215.048 364.49C216.082 362.455 217.537 360.876 219.412 359.751C221.287 358.626 223.503 358.063 226.06 358.063C228.616 358.063 230.832 358.626 232.707 359.751C234.582 360.876 236.031 362.455 237.054 364.49C238.088 366.524 238.605 368.893 238.605 371.598C238.605 374.302 238.088 376.666 237.054 378.688C236.031 380.711 234.582 382.285 232.707 383.41C230.832 384.535 228.616 385.098 226.06 385.098ZM226.094 380.154C227.48 380.154 228.639 379.774 229.571 379.012C230.503 378.24 231.196 377.205 231.651 375.91C232.116 374.615 232.349 373.171 232.349 371.58C232.349 369.978 232.116 368.529 231.651 367.234C231.196 365.927 230.503 364.887 229.571 364.115C228.639 363.342 227.48 362.955 226.094 362.955C224.673 362.955 223.491 363.342 222.548 364.115C221.616 364.887 220.918 365.927 220.452 367.234C219.997 368.529 219.77 369.978 219.77 371.58C219.77 373.171 219.997 374.615 220.452 375.91C220.918 377.205 221.616 378.24 222.548 379.012C223.491 379.774 224.673 380.154 226.094 380.154ZM243.842 384.586V358.404H249.825V362.768H250.098C250.575 361.257 251.393 360.092 252.553 359.274C253.723 358.444 255.058 358.029 256.558 358.029C256.899 358.029 257.28 358.046 257.7 358.08C258.132 358.103 258.49 358.143 258.774 358.2V363.876C258.513 363.785 258.098 363.705 257.53 363.637C256.973 363.558 256.433 363.518 255.911 363.518C254.786 363.518 253.774 363.762 252.876 364.251C251.99 364.728 251.291 365.393 250.78 366.245C250.268 367.098 250.013 368.08 250.013 369.194V384.586H243.842ZM274.78 384.586V358.404H280.95V384.586H274.78ZM277.882 354.688C276.905 354.688 276.064 354.365 275.359 353.717C274.655 353.058 274.303 352.268 274.303 351.348C274.303 350.416 274.655 349.626 275.359 348.978C276.064 348.319 276.905 347.99 277.882 347.99C278.871 347.99 279.712 348.319 280.405 348.978C281.109 349.626 281.462 350.416 281.462 351.348C281.462 352.268 281.109 353.058 280.405 353.717C279.712 354.365 278.871 354.688 277.882 354.688ZM293.466 369.245V384.586H287.295V358.404H293.193V362.853H293.5C294.102 361.387 295.063 360.223 296.381 359.359C297.71 358.495 299.352 358.063 301.307 358.063C303.114 358.063 304.688 358.45 306.028 359.223C307.381 359.995 308.426 361.115 309.165 362.58C309.915 364.046 310.284 365.825 310.273 367.916V384.586H304.102V368.87C304.102 367.12 303.648 365.751 302.739 364.762C301.841 363.774 300.597 363.279 299.006 363.279C297.926 363.279 296.966 363.518 296.125 363.995C295.295 364.461 294.642 365.137 294.165 366.024C293.699 366.91 293.466 367.984 293.466 369.245ZM327.966 385.098C325.352 385.098 323.108 384.524 321.233 383.376C319.369 382.228 317.932 380.643 316.92 378.62C315.92 376.586 315.42 374.245 315.42 371.598C315.42 368.938 315.932 366.592 316.955 364.558C317.977 362.512 319.42 360.921 321.284 359.785C323.159 358.637 325.375 358.063 327.932 358.063C330.057 358.063 331.938 358.455 333.574 359.24C335.222 360.012 336.534 361.109 337.511 362.529C338.489 363.938 339.045 365.586 339.182 367.473H333.284C333.045 366.211 332.477 365.16 331.58 364.319C330.693 363.467 329.506 363.041 328.017 363.041C326.756 363.041 325.648 363.382 324.693 364.063C323.739 364.734 322.994 365.7 322.46 366.961C321.938 368.223 321.676 369.734 321.676 371.495C321.676 373.279 321.938 374.813 322.46 376.098C322.983 377.37 323.716 378.353 324.659 379.046C325.614 379.728 326.733 380.069 328.017 380.069C328.926 380.069 329.739 379.899 330.455 379.558C331.182 379.205 331.79 378.7 332.278 378.041C332.767 377.382 333.102 376.58 333.284 375.637H339.182C339.034 377.49 338.489 379.132 337.545 380.563C336.602 381.984 335.318 383.098 333.693 383.904C332.068 384.7 330.159 385.098 327.966 385.098ZM355.669 385.098C353.112 385.098 350.896 384.535 349.021 383.41C347.146 382.285 345.692 380.711 344.658 378.688C343.635 376.666 343.124 374.302 343.124 371.598C343.124 368.893 343.635 366.524 344.658 364.49C345.692 362.455 347.146 360.876 349.021 359.751C350.896 358.626 353.112 358.063 355.669 358.063C358.226 358.063 360.442 358.626 362.317 359.751C364.192 360.876 365.641 362.455 366.663 364.49C367.697 366.524 368.214 368.893 368.214 371.598C368.214 374.302 367.697 376.666 366.663 378.688C365.641 380.711 364.192 382.285 362.317 383.41C360.442 384.535 358.226 385.098 355.669 385.098ZM355.703 380.154C357.089 380.154 358.249 379.774 359.18 379.012C360.112 378.24 360.805 377.205 361.26 375.91C361.726 374.615 361.959 373.171 361.959 371.58C361.959 369.978 361.726 368.529 361.26 367.234C360.805 365.927 360.112 364.887 359.18 364.115C358.249 363.342 357.089 362.955 355.703 362.955C354.283 362.955 353.101 363.342 352.158 364.115C351.226 364.887 350.527 365.927 350.061 367.234C349.607 368.529 349.379 369.978 349.379 371.58C349.379 373.171 349.607 374.615 350.061 375.91C350.527 377.205 351.226 378.24 352.158 379.012C353.101 379.774 354.283 380.154 355.703 380.154ZM379.622 369.245V384.586H373.452V358.404H379.349V362.853H379.656C380.259 361.387 381.219 360.223 382.537 359.359C383.866 358.495 385.509 358.063 387.463 358.063C389.27 358.063 390.844 358.45 392.185 359.223C393.537 359.995 394.582 361.115 395.321 362.58C396.071 364.046 396.44 365.825 396.429 367.916V384.586H390.259V368.87C390.259 367.12 389.804 365.751 388.895 364.762C387.997 363.774 386.753 363.279 385.162 363.279C384.082 363.279 383.122 363.518 382.281 363.995C381.452 364.461 380.798 365.137 380.321 366.024C379.855 366.91 379.622 367.984 379.622 369.245ZM425.151 358.404L415.827 384.586H409.009L399.685 358.404H406.264L412.281 377.853H412.554L418.588 358.404H425.151ZM440.121 385.098C437.496 385.098 435.229 384.552 433.32 383.461C431.422 382.359 429.962 380.802 428.939 378.791C427.916 376.768 427.405 374.387 427.405 371.649C427.405 368.955 427.916 366.592 428.939 364.558C429.973 362.512 431.416 360.921 433.268 359.785C435.121 358.637 437.297 358.063 439.797 358.063C441.411 358.063 442.933 358.325 444.365 358.848C445.808 359.359 447.081 360.154 448.183 361.234C449.297 362.313 450.172 363.688 450.808 365.359C451.445 367.018 451.763 368.995 451.763 371.291V373.183H430.303V369.024H445.848C445.837 367.842 445.581 366.791 445.081 365.87C444.581 364.938 443.882 364.205 442.984 363.671C442.098 363.137 441.064 362.87 439.882 362.87C438.621 362.87 437.513 363.177 436.558 363.791C435.604 364.393 434.859 365.188 434.325 366.177C433.803 367.154 433.536 368.228 433.524 369.399V373.029C433.524 374.552 433.803 375.859 434.359 376.95C434.916 378.029 435.695 378.859 436.695 379.438C437.695 380.007 438.865 380.291 440.206 380.291C441.104 380.291 441.916 380.166 442.643 379.916C443.371 379.654 444.001 379.274 444.536 378.774C445.07 378.274 445.473 377.654 445.746 376.916L451.507 377.563C451.143 379.086 450.45 380.416 449.428 381.552C448.416 382.677 447.121 383.552 445.541 384.177C443.962 384.791 442.155 385.098 440.121 385.098ZM463.153 369.245V384.586H456.983V358.404H462.881V362.853H463.188C463.79 361.387 464.75 360.223 466.068 359.359C467.398 358.495 469.04 358.063 470.994 358.063C472.801 358.063 474.375 358.45 475.716 359.223C477.068 359.995 478.114 361.115 478.852 362.58C479.602 364.046 479.972 365.825 479.96 367.916V384.586H473.79V368.87C473.79 367.12 473.335 365.751 472.426 364.762C471.528 363.774 470.284 363.279 468.693 363.279C467.614 363.279 466.653 363.518 465.812 363.995C464.983 364.461 464.33 365.137 463.852 366.024C463.386 366.91 463.153 367.984 463.153 369.245ZM486.233 384.586V358.404H492.403V384.586H486.233ZM489.335 354.688C488.358 354.688 487.517 354.365 486.812 353.717C486.108 353.058 485.756 352.268 485.756 351.348C485.756 350.416 486.108 349.626 486.812 348.978C487.517 348.319 488.358 347.99 489.335 347.99C490.324 347.99 491.165 348.319 491.858 348.978C492.563 349.626 492.915 350.416 492.915 351.348C492.915 352.268 492.563 353.058 491.858 353.717C491.165 354.365 490.324 354.688 489.335 354.688ZM510.339 385.098C507.714 385.098 505.447 384.552 503.538 383.461C501.641 382.359 500.18 380.802 499.158 378.791C498.135 376.768 497.624 374.387 497.624 371.649C497.624 368.955 498.135 366.592 499.158 364.558C500.192 362.512 501.635 360.921 503.487 359.785C505.339 358.637 507.516 358.063 510.016 358.063C511.629 358.063 513.152 358.325 514.584 358.848C516.027 359.359 517.3 360.154 518.402 361.234C519.516 362.313 520.391 363.688 521.027 365.359C521.663 367.018 521.982 368.995 521.982 371.291V373.183H500.521V369.024H516.067C516.055 367.842 515.8 366.791 515.3 365.87C514.8 364.938 514.101 364.205 513.203 363.671C512.317 363.137 511.283 362.87 510.101 362.87C508.839 362.87 507.732 363.177 506.777 363.791C505.822 364.393 505.078 365.188 504.544 366.177C504.021 367.154 503.754 368.228 503.743 369.399V373.029C503.743 374.552 504.021 375.859 504.578 376.95C505.135 378.029 505.913 378.859 506.913 379.438C507.913 380.007 509.084 380.291 510.425 380.291C511.322 380.291 512.135 380.166 512.862 379.916C513.589 379.654 514.22 379.274 514.754 378.774C515.288 378.274 515.692 377.654 515.964 376.916L521.726 377.563C521.362 379.086 520.669 380.416 519.646 381.552C518.635 382.677 517.339 383.552 515.76 384.177C514.18 384.791 512.374 385.098 510.339 385.098ZM533.372 369.245V384.586H527.202V358.404H533.099V362.853H533.406C534.009 361.387 534.969 360.223 536.287 359.359C537.616 358.495 539.259 358.063 541.213 358.063C543.02 358.063 544.594 358.45 545.935 359.223C547.287 359.995 548.332 361.115 549.071 362.58C549.821 364.046 550.19 365.825 550.179 367.916V384.586H544.009V368.87C544.009 367.12 543.554 365.751 542.645 364.762C541.747 363.774 540.503 363.279 538.912 363.279C537.832 363.279 536.872 363.518 536.031 363.995C535.202 364.461 534.548 365.137 534.071 366.024C533.605 366.91 533.372 367.984 533.372 369.245ZM567.872 385.098C565.259 385.098 563.014 384.524 561.139 383.376C559.276 382.228 557.838 380.643 556.827 378.62C555.827 376.586 555.327 374.245 555.327 371.598C555.327 368.938 555.838 366.592 556.861 364.558C557.884 362.512 559.327 360.921 561.19 359.785C563.065 358.637 565.281 358.063 567.838 358.063C569.963 358.063 571.844 358.455 573.48 359.24C575.128 360.012 576.44 361.109 577.418 362.529C578.395 363.938 578.952 365.586 579.088 367.473H573.19C572.952 366.211 572.384 365.16 571.486 364.319C570.599 363.467 569.412 363.041 567.923 363.041C566.662 363.041 565.554 363.382 564.599 364.063C563.645 364.734 562.901 365.7 562.366 366.961C561.844 368.223 561.582 369.734 561.582 371.495C561.582 373.279 561.844 374.813 562.366 376.098C562.889 377.37 563.622 378.353 564.565 379.046C565.52 379.728 566.639 380.069 567.923 380.069C568.832 380.069 569.645 379.899 570.361 379.558C571.088 379.205 571.696 378.7 572.185 378.041C572.673 377.382 573.009 376.58 573.19 375.637H579.088C578.94 377.49 578.395 379.132 577.452 380.563C576.509 381.984 575.224 383.098 573.599 383.904C571.974 384.7 570.065 385.098 567.872 385.098ZM595.746 385.098C593.121 385.098 590.854 384.552 588.945 383.461C587.047 382.359 585.587 380.802 584.564 378.791C583.541 376.768 583.03 374.387 583.03 371.649C583.03 368.955 583.541 366.592 584.564 364.558C585.598 362.512 587.041 360.921 588.893 359.785C590.746 358.637 592.922 358.063 595.422 358.063C597.036 358.063 598.558 358.325 599.99 358.848C601.433 359.359 602.706 360.154 603.808 361.234C604.922 362.313 605.797 363.688 606.433 365.359C607.07 367.018 607.388 368.995 607.388 371.291V373.183H585.928V369.024H601.473C601.462 367.842 601.206 366.791 600.706 365.87C600.206 364.938 599.507 364.205 598.609 363.671C597.723 363.137 596.689 362.87 595.507 362.87C594.246 362.87 593.138 363.177 592.183 363.791C591.229 364.393 590.484 365.188 589.95 366.177C589.428 367.154 589.161 368.228 589.149 369.399V373.029C589.149 374.552 589.428 375.859 589.984 376.95C590.541 378.029 591.32 378.859 592.32 379.438C593.32 380.007 594.49 380.291 595.831 380.291C596.729 380.291 597.541 380.166 598.268 379.916C598.996 379.654 599.626 379.274 600.161 378.774C600.695 378.274 601.098 377.654 601.371 376.916L607.132 377.563C606.768 379.086 606.075 380.416 605.053 381.552C604.041 382.677 602.746 383.552 601.166 384.177C599.587 384.791 597.78 385.098 595.746 385.098ZM94.3004 442.586L86.9027 416.404H93.1925L97.7947 434.813H98.0334L102.738 416.404H108.96L113.664 434.711H113.92L118.454 416.404H124.761L117.346 442.586H110.92L106.011 424.893H105.653L100.744 442.586H94.3004ZM139.91 443.098C137.285 443.098 135.018 442.552 133.109 441.461C131.211 440.359 129.751 438.802 128.728 436.791C127.705 434.768 127.194 432.387 127.194 429.649C127.194 426.955 127.705 424.592 128.728 422.558C129.762 420.512 131.205 418.921 133.058 417.785C134.91 416.637 137.086 416.063 139.586 416.063C141.2 416.063 142.722 416.325 144.154 416.848C145.597 417.359 146.87 418.154 147.972 419.234C149.086 420.313 149.961 421.688 150.597 423.359C151.234 425.018 151.552 426.995 151.552 429.291V431.183H130.092V427.024H145.637C145.626 425.842 145.37 424.791 144.87 423.87C144.37 422.938 143.671 422.205 142.773 421.671C141.887 421.137 140.853 420.87 139.671 420.87C138.41 420.87 137.302 421.177 136.347 421.791C135.393 422.393 134.648 423.188 134.114 424.177C133.592 425.154 133.325 426.228 133.313 427.399V431.029C133.313 432.552 133.592 433.859 134.148 434.95C134.705 436.029 135.484 436.859 136.484 437.438C137.484 438.007 138.654 438.291 139.995 438.291C140.893 438.291 141.705 438.166 142.433 437.916C143.16 437.654 143.79 437.274 144.325 436.774C144.859 436.274 145.262 435.654 145.535 434.916L151.296 435.563C150.933 437.086 150.239 438.416 149.217 439.552C148.205 440.677 146.91 441.552 145.33 442.177C143.751 442.791 141.944 443.098 139.91 443.098ZM174.082 442.586L166.684 416.404H172.974L177.576 434.813H177.815L182.519 416.404H188.741L193.445 434.711H193.701L198.235 416.404H204.542L197.127 442.586H190.701L185.792 424.893H185.434L180.525 442.586H174.082ZM208.85 442.586V416.404H215.021V442.586H208.85ZM211.952 412.688C210.975 412.688 210.134 412.365 209.43 411.717C208.725 411.058 208.373 410.268 208.373 409.348C208.373 408.416 208.725 407.626 209.43 406.978C210.134 406.319 210.975 405.99 211.952 405.99C212.941 405.99 213.782 406.319 214.475 406.978C215.18 407.626 215.532 408.416 215.532 409.348C215.532 410.268 215.18 411.058 214.475 411.717C213.782 412.365 212.941 412.688 211.952 412.688ZM227.536 407.677V442.586H221.366V407.677H227.536ZM240.052 407.677V442.586H233.881V407.677H240.052ZM258.576 442.586V407.677H264.746V420.734H265.002C265.32 420.098 265.769 419.421 266.349 418.705C266.928 417.978 267.712 417.359 268.701 416.848C269.69 416.325 270.951 416.063 272.485 416.063C274.508 416.063 276.332 416.58 277.957 417.615C279.593 418.637 280.888 420.154 281.843 422.166C282.809 424.166 283.292 426.62 283.292 429.529C283.292 432.404 282.82 434.848 281.877 436.859C280.934 438.87 279.65 440.404 278.025 441.461C276.4 442.518 274.559 443.046 272.502 443.046C271.002 443.046 269.758 442.796 268.769 442.296C267.781 441.796 266.985 441.194 266.383 440.49C265.792 439.774 265.332 439.098 265.002 438.461H264.644V442.586H258.576ZM264.627 429.495C264.627 431.188 264.866 432.671 265.343 433.944C265.832 435.217 266.531 436.211 267.44 436.927C268.36 437.632 269.474 437.984 270.781 437.984C272.144 437.984 273.286 437.62 274.207 436.893C275.127 436.154 275.82 435.149 276.286 433.876C276.763 432.592 277.002 431.132 277.002 429.495C277.002 427.87 276.769 426.427 276.303 425.166C275.837 423.904 275.144 422.916 274.224 422.2C273.303 421.484 272.156 421.126 270.781 421.126C269.462 421.126 268.343 421.473 267.423 422.166C266.502 422.859 265.803 423.83 265.326 425.08C264.86 426.33 264.627 427.802 264.627 429.495ZM300.129 443.098C297.504 443.098 295.237 442.552 293.327 441.461C291.43 440.359 289.969 438.802 288.947 436.791C287.924 434.768 287.413 432.387 287.413 429.649C287.413 426.955 287.924 424.592 288.947 422.558C289.981 420.512 291.424 418.921 293.276 417.785C295.129 416.637 297.305 416.063 299.805 416.063C301.418 416.063 302.941 416.325 304.373 416.848C305.816 417.359 307.089 418.154 308.191 419.234C309.305 420.313 310.18 421.688 310.816 423.359C311.452 425.018 311.771 426.995 311.771 429.291V431.183H290.31V427.024H305.856C305.844 425.842 305.589 424.791 305.089 423.87C304.589 422.938 303.89 422.205 302.992 421.671C302.106 421.137 301.072 420.87 299.89 420.87C298.629 420.87 297.521 421.177 296.566 421.791C295.612 422.393 294.867 423.188 294.333 424.177C293.81 425.154 293.543 426.228 293.532 427.399V431.029C293.532 432.552 293.81 433.859 294.367 434.95C294.924 436.029 295.702 436.859 296.702 437.438C297.702 438.007 298.873 438.291 300.214 438.291C301.112 438.291 301.924 438.166 302.651 437.916C303.379 437.654 304.009 437.274 304.543 436.774C305.077 436.274 305.481 435.654 305.754 434.916L311.515 435.563C311.151 437.086 310.458 438.416 309.435 439.552C308.424 440.677 307.129 441.552 305.549 442.177C303.969 442.791 302.163 443.098 300.129 443.098ZM329.17 442.586V407.677H335.34V420.734H335.596C335.914 420.098 336.363 419.421 336.942 418.705C337.522 417.978 338.306 417.359 339.295 416.848C340.283 416.325 341.545 416.063 343.079 416.063C345.102 416.063 346.925 416.58 348.55 417.615C350.187 418.637 351.482 420.154 352.437 422.166C353.403 424.166 353.886 426.62 353.886 429.529C353.886 432.404 353.414 434.848 352.471 436.859C351.528 438.87 350.244 440.404 348.619 441.461C346.994 442.518 345.153 443.046 343.096 443.046C341.596 443.046 340.352 442.796 339.363 442.296C338.374 441.796 337.579 441.194 336.977 440.49C336.386 439.774 335.925 439.098 335.596 438.461H335.238V442.586H329.17ZM335.221 429.495C335.221 431.188 335.46 432.671 335.937 433.944C336.425 435.217 337.124 436.211 338.033 436.927C338.954 437.632 340.067 437.984 341.374 437.984C342.738 437.984 343.88 437.62 344.8 436.893C345.721 436.154 346.414 435.149 346.88 433.876C347.357 432.592 347.596 431.132 347.596 429.495C347.596 427.87 347.363 426.427 346.897 425.166C346.431 423.904 345.738 422.916 344.817 422.2C343.897 421.484 342.749 421.126 341.374 421.126C340.056 421.126 338.937 421.473 338.016 422.166C337.096 422.859 336.397 423.83 335.92 425.08C335.454 426.33 335.221 427.802 335.221 429.495ZM366.665 443.115C365.006 443.115 363.512 442.819 362.183 442.228C360.864 441.626 359.819 440.74 359.046 439.569C358.285 438.399 357.904 436.955 357.904 435.24C357.904 433.762 358.177 432.541 358.722 431.575C359.268 430.609 360.012 429.836 360.955 429.257C361.898 428.677 362.961 428.24 364.143 427.944C365.336 427.637 366.569 427.416 367.842 427.279C369.376 427.12 370.62 426.978 371.575 426.853C372.529 426.717 373.222 426.512 373.654 426.24C374.097 425.955 374.319 425.518 374.319 424.927V424.825C374.319 423.541 373.938 422.546 373.177 421.842C372.415 421.137 371.319 420.785 369.887 420.785C368.376 420.785 367.177 421.115 366.29 421.774C365.415 422.433 364.825 423.211 364.518 424.109L358.756 423.291C359.211 421.7 359.961 420.37 361.006 419.302C362.052 418.223 363.33 417.416 364.842 416.882C366.353 416.336 368.023 416.063 369.853 416.063C371.114 416.063 372.37 416.211 373.62 416.507C374.87 416.802 376.012 417.291 377.046 417.973C378.08 418.643 378.91 419.558 379.535 420.717C380.171 421.876 380.489 423.325 380.489 425.063V442.586H374.558V438.99H374.353C373.978 439.717 373.45 440.399 372.768 441.035C372.097 441.66 371.251 442.166 370.228 442.552C369.217 442.927 368.029 443.115 366.665 443.115ZM368.268 438.58C369.506 438.58 370.58 438.336 371.489 437.848C372.398 437.348 373.097 436.688 373.586 435.87C374.086 435.052 374.336 434.16 374.336 433.194V430.109C374.143 430.268 373.813 430.416 373.347 430.552C372.893 430.688 372.381 430.808 371.813 430.91C371.245 431.012 370.683 431.103 370.126 431.183C369.569 431.262 369.086 431.33 368.677 431.387C367.756 431.512 366.933 431.717 366.205 432.001C365.478 432.285 364.904 432.683 364.484 433.194C364.063 433.694 363.853 434.342 363.853 435.137C363.853 436.274 364.268 437.132 365.097 437.711C365.927 438.291 366.984 438.58 368.268 438.58ZM398.114 443.098C395.501 443.098 393.256 442.524 391.381 441.376C389.518 440.228 388.08 438.643 387.069 436.62C386.069 434.586 385.569 432.245 385.569 429.598C385.569 426.938 386.08 424.592 387.103 422.558C388.126 420.512 389.569 418.921 391.433 417.785C393.308 416.637 395.523 416.063 398.08 416.063C400.205 416.063 402.086 416.455 403.722 417.24C405.37 418.012 406.683 419.109 407.66 420.529C408.637 421.938 409.194 423.586 409.33 425.473H403.433C403.194 424.211 402.626 423.16 401.728 422.319C400.842 421.467 399.654 421.041 398.165 421.041C396.904 421.041 395.796 421.382 394.842 422.063C393.887 422.734 393.143 423.7 392.609 424.961C392.086 426.223 391.825 427.734 391.825 429.495C391.825 431.279 392.086 432.813 392.609 434.098C393.131 435.37 393.864 436.353 394.808 437.046C395.762 437.728 396.881 438.069 398.165 438.069C399.075 438.069 399.887 437.899 400.603 437.558C401.33 437.205 401.938 436.7 402.427 436.041C402.915 435.382 403.251 434.58 403.433 433.637H409.33C409.183 435.49 408.637 437.132 407.694 438.563C406.751 439.984 405.467 441.098 403.842 441.904C402.217 442.7 400.308 443.098 398.114 443.098ZM420.022 434.37L420.005 426.921H420.994L430.403 416.404H437.613L426.039 429.291H424.761L420.022 434.37ZM414.397 442.586V407.677H420.567V442.586H414.397ZM430.829 442.586L422.306 430.671L426.465 426.325L438.21 442.586H430.829ZM474.325 423.325L468.7 423.938C468.54 423.37 468.262 422.836 467.864 422.336C467.478 421.836 466.955 421.433 466.296 421.126C465.637 420.819 464.83 420.666 463.876 420.666C462.592 420.666 461.512 420.944 460.637 421.501C459.773 422.058 459.347 422.779 459.359 423.666C459.347 424.427 459.626 425.046 460.194 425.524C460.773 426.001 461.728 426.393 463.058 426.7L467.523 427.654C470.001 428.188 471.842 429.035 473.046 430.194C474.262 431.353 474.876 432.87 474.887 434.745C474.876 436.393 474.393 437.848 473.438 439.109C472.495 440.359 471.183 441.336 469.501 442.041C467.819 442.745 465.887 443.098 463.705 443.098C460.501 443.098 457.921 442.427 455.967 441.086C454.012 439.734 452.847 437.853 452.472 435.444L458.489 434.865C458.762 436.046 459.342 436.938 460.228 437.541C461.114 438.143 462.268 438.444 463.688 438.444C465.154 438.444 466.33 438.143 467.217 437.541C468.114 436.938 468.563 436.194 468.563 435.308C468.563 434.558 468.273 433.938 467.694 433.45C467.126 432.961 466.239 432.586 465.035 432.325L460.569 431.387C458.058 430.865 456.2 429.984 454.995 428.745C453.79 427.495 453.194 425.916 453.205 424.007C453.194 422.393 453.631 420.995 454.518 419.813C455.415 418.62 456.66 417.7 458.251 417.052C459.853 416.393 461.7 416.063 463.79 416.063C466.859 416.063 469.273 416.717 471.035 418.024C472.808 419.33 473.904 421.098 474.325 423.325ZM491.396 443.098C488.839 443.098 486.623 442.535 484.748 441.41C482.873 440.285 481.418 438.711 480.384 436.688C479.362 434.666 478.85 432.302 478.85 429.598C478.85 426.893 479.362 424.524 480.384 422.49C481.418 420.455 482.873 418.876 484.748 417.751C486.623 416.626 488.839 416.063 491.396 416.063C493.952 416.063 496.168 416.626 498.043 417.751C499.918 418.876 501.367 420.455 502.39 422.49C503.424 424.524 503.941 426.893 503.941 429.598C503.941 432.302 503.424 434.666 502.39 436.688C501.367 438.711 499.918 440.285 498.043 441.41C496.168 442.535 493.952 443.098 491.396 443.098ZM491.43 438.154C492.816 438.154 493.975 437.774 494.907 437.012C495.839 436.24 496.532 435.205 496.987 433.91C497.452 432.615 497.685 431.171 497.685 429.58C497.685 427.978 497.452 426.529 496.987 425.234C496.532 423.927 495.839 422.887 494.907 422.115C493.975 421.342 492.816 420.955 491.43 420.955C490.009 420.955 488.827 421.342 487.884 422.115C486.952 422.887 486.254 423.927 485.788 425.234C485.333 426.529 485.106 427.978 485.106 429.58C485.106 431.171 485.333 432.615 485.788 433.91C486.254 435.205 486.952 436.24 487.884 437.012C488.827 437.774 490.009 438.154 491.43 438.154ZM520.599 443.098C518.042 443.098 515.826 442.535 513.951 441.41C512.076 440.285 510.621 438.711 509.587 436.688C508.565 434.666 508.053 432.302 508.053 429.598C508.053 426.893 508.565 424.524 509.587 422.49C510.621 420.455 512.076 418.876 513.951 417.751C515.826 416.626 518.042 416.063 520.599 416.063C523.156 416.063 525.371 416.626 527.246 417.751C529.121 418.876 530.57 420.455 531.593 422.49C532.627 424.524 533.144 426.893 533.144 429.598C533.144 432.302 532.627 434.666 531.593 436.688C530.57 438.711 529.121 440.285 527.246 441.41C525.371 442.535 523.156 443.098 520.599 443.098ZM520.633 438.154C522.019 438.154 523.178 437.774 524.11 437.012C525.042 436.24 525.735 435.205 526.19 433.91C526.656 432.615 526.888 431.171 526.888 429.58C526.888 427.978 526.656 426.529 526.19 425.234C525.735 423.927 525.042 422.887 524.11 422.115C523.178 421.342 522.019 420.955 520.633 420.955C519.212 420.955 518.031 421.342 517.087 422.115C516.156 422.887 515.457 423.927 514.991 425.234C514.536 426.529 514.309 427.978 514.309 429.58C514.309 431.171 514.536 432.615 514.991 433.91C515.457 435.205 516.156 436.24 517.087 437.012C518.031 437.774 519.212 438.154 520.633 438.154ZM544.552 427.245V442.586H538.381V416.404H544.279V420.853H544.586C545.188 419.387 546.148 418.223 547.467 417.359C548.796 416.495 550.438 416.063 552.393 416.063C554.2 416.063 555.773 416.45 557.114 417.223C558.467 417.995 559.512 419.115 560.251 420.58C561.001 422.046 561.37 423.825 561.359 425.916V442.586H555.188V426.87C555.188 425.12 554.734 423.751 553.825 422.762C552.927 421.774 551.683 421.279 550.092 421.279C549.012 421.279 548.052 421.518 547.211 421.995C546.381 422.461 545.728 423.137 545.251 424.024C544.785 424.91 544.552 425.984 544.552 427.245ZM575.183 407.677L574.62 432.325H569.131L568.586 407.677H575.183ZM571.876 442.961C570.842 442.961 569.955 442.598 569.217 441.87C568.489 441.143 568.126 440.257 568.126 439.211C568.126 438.188 568.489 437.313 569.217 436.586C569.955 435.859 570.842 435.495 571.876 435.495C572.887 435.495 573.762 435.859 574.501 436.586C575.251 437.313 575.626 438.188 575.626 439.211C575.626 439.904 575.45 440.535 575.097 441.103C574.756 441.671 574.302 442.126 573.734 442.467C573.177 442.796 572.558 442.961 571.876 442.961Z" fill="#282828"/>
</svg>
