<svg width="1440" height="909" viewBox="0 0 1440 909" fill="none" xmlns="http://www.w3.org/2000/svg">
<rect width="1440" height="909" fill="#C6EEF1"/>
<rect width="602.199" height="126.679" rx="26" transform="matrix(-0.998707 -0.0508286 -0.0399143 0.999203 1019 467.911)" fill="#4F8F92"/>
<path d="M196.215 287.845C195.501 296.364 196.393 305.507 201.508 312.407C206.622 319.327 216.95 322.992 224.424 318.626C237.784 310.828 232.611 286.305 246.864 280.204C251.621 288.879 247.538 299.405 244.703 308.859C241.868 318.314 241.491 330.731 250.154 335.683C257.687 339.991 267.757 335.371 272.673 328.295C277.59 321.238 278.938 312.427 281.178 304.161C283.418 295.877 287.224 287.222 294.876 283.147C300.406 291.003 297.552 301.588 295.966 311.043C294.4 320.478 296.006 332.661 305.204 335.741C310.477 337.495 316.483 335.273 320.448 331.433C324.412 327.573 326.652 322.368 328.417 317.164C334.324 299.639 335.573 280.613 332.024 262.484C330.756 256.012 328.734 249.404 324.174 244.57C319.615 239.755 311.904 237.279 305.977 240.359C300.248 243.342 298.047 250.106 294.915 255.7C291.783 261.276 285.202 266.597 279.394 263.79C274.339 261.334 273.724 254.726 272.455 249.326C267.718 229.072 258.302 248.098 251.324 251.295C242.423 255.369 237.348 248.624 229.974 245.33C207.316 235.232 197.722 269.794 196.215 287.845Z" fill="#1AADB4" fill-opacity="0.4"/>
<path d="M445.577 691.481C446.357 687.127 447.723 682.045 451.925 680.432C456.358 678.732 461.412 682.305 463.043 686.694C464.675 691.082 463.877 695.922 463.239 700.536C462.618 705.167 462.228 710.146 464.533 714.222C468.221 720.744 477.141 722.305 484.713 721.49C492.267 720.675 499.839 718.194 507.34 719.495C514.84 720.796 522.075 728.081 519.451 735.072C516.986 741.611 508.297 743.051 501.169 743.12C494.04 743.19 485.528 743.641 481.876 749.625C479.198 754.014 480.404 759.703 482.549 764.369C484.695 769.035 487.692 773.459 488.525 778.506C489.359 783.554 487.036 789.677 481.946 790.909C476.095 792.331 470.952 786.711 468.629 781.264C466.324 775.818 464.888 769.452 459.958 766.052C453.858 761.837 445.275 764.231 438.945 768.116C432.614 772.002 426.904 777.309 419.634 779.027C412.381 780.779 402.894 776.581 403.001 769.261C403.107 762.791 410.129 758.819 416.283 756.442C422.436 754.066 429.635 750.926 430.823 744.543C432.1 737.726 425.663 732.123 420.006 727.96C414.35 723.78 408.143 717.726 410.076 711.048C412.115 703.97 422.56 702.392 428.855 706.399C433.341 709.261 436.054 713.979 438.679 718.316C444.318 712.99 444.194 699.148 445.577 691.481Z" fill="#014751"/>
<path d="M1183.26 513.849C1180.47 516.386 1180.16 520.858 1181.77 524.255C1183.38 527.651 1186.51 530.131 1189.81 531.983C1193.59 534.113 1197.86 535.64 1202.22 535.532C1210.32 535.344 1220.41 525.955 1212.07 519.159C1206.41 514.535 1189.67 508.043 1183.26 513.849Z" fill="#4F8F92"/>
<path d="M1180.59 477.087C1177.45 479.382 1174.88 483.054 1175.5 486.86C1176.02 490.083 1178.82 492.653 1181.99 493.596C1185.16 494.54 1188.63 494.071 1191.75 492.966C1198.33 490.635 1204.71 482.904 1199.52 476.109C1195.29 470.519 1185.24 473.713 1180.59 477.087Z" fill="#4F8F92"/>
<path d="M1153.46 503.933C1151.58 506.909 1150.26 510.398 1150.76 513.859C1151.48 518.835 1156.31 522.845 1161.42 522.908C1172.44 523.037 1174.29 511.615 1171.78 503.46C1168.79 493.769 1158.02 496.685 1153.46 503.933Z" fill="#4F8F92"/>
<path d="M1138.96 474.233C1137.51 477.13 1137.28 480.654 1138.62 483.601C1143.08 493.425 1156.27 488.145 1155.35 478.373C1154.61 470.538 1142.95 466.232 1138.96 474.233Z" fill="#4F8F92"/>
<path d="M1121.3 502C1116.34 503.332 1112.2 507.294 1110.71 512.13C1109.23 516.919 1110.7 522.83 1115.09 525.35C1118.5 527.322 1123.02 526.84 1126.41 524.832C1129.8 522.823 1132.2 519.493 1133.85 515.937C1135.57 512.191 1137.81 507.341 1134.4 504.173C1131.34 501.355 1125.07 500.977 1121.3 502Z" fill="#4F8F92"/>
<path d="M1154.22 539.335C1150.93 538.658 1147.34 538.837 1144.44 540.506C1141.55 542.175 1139.55 545.549 1140.17 548.806C1140.97 553.004 1145.47 555.396 1149.59 556.764C1152.76 557.8 1156.07 558.586 1159.39 558.376C1162.71 558.165 1166.09 556.867 1168.19 554.338C1175.61 545.49 1160.78 540.665 1154.22 539.335Z" fill="#4F8F92"/>
<path d="M1086.49 487.048C1084.13 483.612 1080.18 480.913 1075.96 481.187C1073.86 481.321 1071.81 482.19 1070.22 483.538C1066.98 486.293 1065.71 490.896 1066.44 495.052C1067.16 499.209 1069.65 502.912 1072.79 505.786C1075.34 508.132 1078.45 510.031 1081.9 510.466C1096.9 512.368 1091.19 493.913 1086.49 487.048Z" fill="#4F8F92"/>
<path d="M1088.09 526.518C1085.12 529.838 1085.64 535.588 1089.16 538.35C1092.67 541.113 1098.49 540.326 1101.12 536.74C1107.29 528.4 1094.96 518.85 1088.09 526.518Z" fill="#4F8F92"/>
<path d="M374.809 251.704L369.001 272.824L367.065 264.904C369.588 264.904 371.641 265.637 373.225 267.104C374.809 268.571 375.601 270.595 375.601 273.176C375.601 275.699 374.78 277.752 373.137 279.336C371.553 280.861 369.558 281.624 367.153 281.624C364.689 281.624 362.636 280.861 360.993 279.336C359.409 277.752 358.617 275.699 358.617 273.176C358.617 272.413 358.676 271.68 358.793 270.976C358.91 270.213 359.145 269.333 359.497 268.336C359.849 267.339 360.348 266.019 360.993 264.376L366.097 251.704H374.809ZM395.577 251.704L389.769 272.824L387.833 264.904C390.356 264.904 392.409 265.637 393.993 267.104C395.577 268.571 396.369 270.595 396.369 273.176C396.369 275.699 395.548 277.752 393.905 279.336C392.321 280.861 390.326 281.624 387.921 281.624C385.457 281.624 383.404 280.861 381.761 279.336C380.177 277.752 379.385 275.699 379.385 273.176C379.385 272.413 379.444 271.68 379.561 270.976C379.678 270.213 379.913 269.333 380.265 268.336C380.617 267.339 381.116 266.019 381.761 264.376L386.865 251.704H395.577ZM406.757 317V255.4H433.421C438.936 255.4 443.688 256.309 447.677 258.128C451.666 259.888 454.746 262.44 456.917 265.784C459.088 269.128 460.173 273.117 460.173 277.752C460.173 282.328 459.088 286.288 456.917 289.632C454.746 292.917 451.666 295.44 447.677 297.2C443.688 298.96 438.936 299.84 433.421 299.84H414.677L421.013 293.592V317H406.757ZM445.917 317L430.517 294.648H445.741L461.317 317H445.917ZM421.013 295.176L414.677 288.488H432.629C437.029 288.488 440.314 287.549 442.485 285.672C444.656 283.736 445.741 281.096 445.741 277.752C445.741 274.349 444.656 271.709 442.485 269.832C440.314 267.955 437.029 267.016 432.629 267.016H414.677L421.013 260.24V295.176ZM493.996 317.704C488.599 317.704 483.847 316.648 479.74 314.536C475.692 312.424 472.553 309.549 470.324 305.912C468.095 302.216 466.98 298.021 466.98 293.328C466.98 288.576 468.065 284.381 470.236 280.744C472.465 277.048 475.487 274.173 479.3 272.12C483.113 270.008 487.425 268.952 492.236 268.952C496.871 268.952 501.036 269.949 504.732 271.944C508.487 273.88 511.449 276.696 513.62 280.392C515.791 284.029 516.876 288.4 516.876 293.504C516.876 294.032 516.847 294.648 516.788 295.352C516.729 295.997 516.671 296.613 516.612 297.2H478.156V289.192H509.396L504.116 291.568C504.116 289.104 503.617 286.963 502.62 285.144C501.623 283.325 500.244 281.917 498.484 280.92C496.724 279.864 494.671 279.336 492.324 279.336C489.977 279.336 487.895 279.864 486.076 280.92C484.316 281.917 482.937 283.355 481.94 285.232C480.943 287.051 480.444 289.221 480.444 291.744V293.856C480.444 296.437 481.001 298.725 482.116 300.72C483.289 302.656 484.903 304.152 486.956 305.208C489.068 306.205 491.532 306.704 494.348 306.704C496.871 306.704 499.071 306.323 500.948 305.56C502.884 304.797 504.644 303.653 506.228 302.128L513.532 310.048C511.361 312.512 508.633 314.419 505.348 315.768C502.063 317.059 498.279 317.704 493.996 317.704ZM553.767 317V307.76L552.887 305.736V289.192C552.887 286.259 551.977 283.971 550.159 282.328C548.399 280.685 545.671 279.864 541.975 279.864C539.452 279.864 536.959 280.275 534.495 281.096C532.089 281.859 530.036 282.915 528.335 284.264L523.407 274.672C525.988 272.853 529.097 271.445 532.735 270.448C536.372 269.451 540.068 268.952 543.823 268.952C551.039 268.952 556.641 270.653 560.631 274.056C564.62 277.459 566.615 282.768 566.615 289.984V317H553.767ZM539.335 317.704C535.639 317.704 532.471 317.088 529.831 315.856C527.191 314.565 525.167 312.835 523.759 310.664C522.351 308.493 521.647 306.059 521.647 303.36C521.647 300.544 522.321 298.08 523.671 295.968C525.079 293.856 527.279 292.213 530.271 291.04C533.263 289.808 537.164 289.192 541.975 289.192H554.559V297.2H543.471C540.244 297.2 538.015 297.728 536.783 298.784C535.609 299.84 535.023 301.16 535.023 302.744C535.023 304.504 535.697 305.912 537.047 306.968C538.455 307.965 540.361 308.464 542.767 308.464C545.055 308.464 547.108 307.936 548.927 306.88C550.745 305.765 552.065 304.152 552.887 302.04L554.999 308.376C554.001 311.427 552.183 313.744 549.543 315.328C546.903 316.912 543.5 317.704 539.335 317.704ZM599.711 317.704C595.252 317.704 591.234 316.707 587.655 314.712C584.076 312.659 581.231 309.813 579.119 306.176C577.066 302.539 576.039 298.256 576.039 293.328C576.039 288.341 577.066 284.029 579.119 280.392C581.231 276.755 584.076 273.939 587.655 271.944C591.234 269.949 595.252 268.952 599.711 268.952C603.7 268.952 607.191 269.832 610.183 271.592C613.175 273.352 615.492 276.021 617.135 279.6C618.778 283.179 619.599 287.755 619.599 293.328C619.599 298.843 618.807 303.419 617.223 307.056C615.639 310.635 613.351 313.304 610.359 315.064C607.426 316.824 603.876 317.704 599.711 317.704ZM602.087 306.44C604.316 306.44 606.34 305.912 608.159 304.856C609.978 303.8 611.415 302.304 612.471 300.368C613.586 298.373 614.143 296.027 614.143 293.328C614.143 290.571 613.586 288.224 612.471 286.288C611.415 284.352 609.978 282.856 608.159 281.8C606.34 280.744 604.316 280.216 602.087 280.216C599.799 280.216 597.746 280.744 595.927 281.8C594.108 282.856 592.642 284.352 591.527 286.288C590.471 288.224 589.943 290.571 589.943 293.328C589.943 296.027 590.471 298.373 591.527 300.368C592.642 302.304 594.108 303.8 595.927 304.856C597.746 305.912 599.799 306.44 602.087 306.44ZM614.495 317V307.32L614.759 293.24L613.879 279.248V251.704H627.607V317H614.495ZM646.297 334.776C643.833 334.776 641.398 334.395 638.993 333.632C636.587 332.869 634.622 331.813 633.097 330.464L638.113 320.696C639.169 321.635 640.371 322.368 641.721 322.896C643.129 323.424 644.507 323.688 645.857 323.688C647.793 323.688 649.318 323.219 650.433 322.28C651.606 321.4 652.662 319.904 653.601 317.792L656.065 311.984L657.121 310.488L674.105 269.656H687.305L665.921 319.904C664.395 323.717 662.635 326.709 660.641 328.88C658.705 331.051 656.534 332.576 654.129 333.456C651.782 334.336 649.171 334.776 646.297 334.776ZM654.393 318.848L633.273 269.656H647.441L663.809 309.256L654.393 318.848ZM731.556 317V267.016H711.844V255.4H765.524V267.016H745.812V317H731.556ZM789.942 317.704C784.897 317.704 780.409 316.648 776.478 314.536C772.606 312.424 769.526 309.549 767.238 305.912C765.009 302.216 763.894 298.021 763.894 293.328C763.894 288.576 765.009 284.381 767.238 280.744C769.526 277.048 772.606 274.173 776.478 272.12C780.409 270.008 784.897 268.952 789.942 268.952C794.929 268.952 799.387 270.008 803.318 272.12C807.249 274.173 810.329 277.019 812.558 280.656C814.787 284.293 815.902 288.517 815.902 293.328C815.902 298.021 814.787 302.216 812.558 305.912C810.329 309.549 807.249 312.424 803.318 314.536C799.387 316.648 794.929 317.704 789.942 317.704ZM789.942 306.44C792.23 306.44 794.283 305.912 796.102 304.856C797.921 303.8 799.358 302.304 800.414 300.368C801.47 298.373 801.998 296.027 801.998 293.328C801.998 290.571 801.47 288.224 800.414 286.288C799.358 284.352 797.921 282.856 796.102 281.8C794.283 280.744 792.23 280.216 789.942 280.216C787.654 280.216 785.601 280.744 783.782 281.8C781.963 282.856 780.497 284.352 779.382 286.288C778.326 288.224 777.798 290.571 777.798 293.328C777.798 296.027 778.326 298.373 779.382 300.368C780.497 302.304 781.963 303.8 783.782 304.856C785.601 305.912 787.654 306.44 789.942 306.44ZM850.968 317V255.4H881.064C888.808 255.4 894.616 256.867 898.488 259.8C902.419 262.733 904.384 266.605 904.384 271.416C904.384 274.643 903.592 277.459 902.008 279.864C900.424 282.211 898.253 284.029 895.496 285.32C892.739 286.611 889.571 287.256 885.992 287.256L887.664 283.648C891.536 283.648 894.968 284.293 897.96 285.584C900.952 286.816 903.269 288.664 904.912 291.128C906.613 293.592 907.464 296.613 907.464 300.192C907.464 305.472 905.381 309.608 901.216 312.6C897.051 315.533 890.92 317 882.824 317H850.968ZM865.136 306.264H881.768C885.464 306.264 888.251 305.677 890.128 304.504C892.064 303.272 893.032 301.336 893.032 298.696C893.032 296.115 892.064 294.208 890.128 292.976C888.251 291.685 885.464 291.04 881.768 291.04H864.08V280.656H879.304C882.765 280.656 885.405 280.069 887.224 278.896C889.101 277.664 890.04 275.816 890.04 273.352C890.04 270.947 889.101 269.157 887.224 267.984C885.405 266.752 882.765 266.136 879.304 266.136H865.136V306.264ZM939.817 317.704C934.772 317.704 930.284 316.648 926.353 314.536C922.481 312.424 919.401 309.549 917.113 305.912C914.884 302.216 913.769 298.021 913.769 293.328C913.769 288.576 914.884 284.381 917.113 280.744C919.401 277.048 922.481 274.173 926.353 272.12C930.284 270.008 934.772 268.952 939.817 268.952C944.804 268.952 949.262 270.008 953.193 272.12C957.124 274.173 960.204 277.019 962.433 280.656C964.662 284.293 965.777 288.517 965.777 293.328C965.777 298.021 964.662 302.216 962.433 305.912C960.204 309.549 957.124 312.424 953.193 314.536C949.262 316.648 944.804 317.704 939.817 317.704ZM939.817 306.44C942.105 306.44 944.158 305.912 945.977 304.856C947.796 303.8 949.233 302.304 950.289 300.368C951.345 298.373 951.873 296.027 951.873 293.328C951.873 290.571 951.345 288.224 950.289 286.288C949.233 284.352 947.796 282.856 945.977 281.8C944.158 280.744 942.105 280.216 939.817 280.216C937.529 280.216 935.476 280.744 933.657 281.8C931.838 282.856 930.372 284.352 929.257 286.288C928.201 288.224 927.673 290.571 927.673 293.328C927.673 296.027 928.201 298.373 929.257 300.368C930.372 302.304 931.838 303.8 933.657 304.856C935.476 305.912 937.529 306.44 939.817 306.44ZM997.481 317.704C992.436 317.704 987.948 316.648 984.017 314.536C980.145 312.424 977.065 309.549 974.777 305.912C972.548 302.216 971.433 298.021 971.433 293.328C971.433 288.576 972.548 284.381 974.777 280.744C977.065 277.048 980.145 274.173 984.017 272.12C987.948 270.008 992.436 268.952 997.481 268.952C1002.47 268.952 1006.93 270.008 1010.86 272.12C1014.79 274.173 1017.87 277.019 1020.1 280.656C1022.33 284.293 1023.44 288.517 1023.44 293.328C1023.44 298.021 1022.33 302.216 1020.1 305.912C1017.87 309.549 1014.79 312.424 1010.86 314.536C1006.93 316.648 1002.47 317.704 997.481 317.704ZM997.481 306.44C999.769 306.44 1001.82 305.912 1003.64 304.856C1005.46 303.8 1006.9 302.304 1007.95 300.368C1009.01 298.373 1009.54 296.027 1009.54 293.328C1009.54 290.571 1009.01 288.224 1007.95 286.288C1006.9 284.352 1005.46 282.856 1003.64 281.8C1001.82 280.744 999.769 280.216 997.481 280.216C995.193 280.216 993.14 280.744 991.321 281.8C989.503 282.856 988.036 284.352 986.921 286.288C985.865 288.224 985.337 290.571 985.337 293.328C985.337 296.027 985.865 298.373 986.921 300.368C988.036 302.304 989.503 303.8 991.321 304.856C993.14 305.912 995.193 306.44 997.481 306.44ZM1043.97 307.32L1044.32 290.6L1066.41 269.656H1082.78L1061.57 291.216L1054.44 297.024L1043.97 307.32ZM1032.62 317V251.704H1046.35V317H1032.62ZM1067.91 317L1051.89 297.112L1060.51 286.464L1084.54 317H1067.91ZM456.659 431V405.832L459.915 414.456L432.811 369.4H447.947L468.715 403.984H460.003L480.859 369.4H494.851L467.747 414.456L470.915 405.832V431H456.659ZM517.134 431.704C512.088 431.704 507.6 430.648 503.67 428.536C499.798 426.424 496.718 423.549 494.43 419.912C492.2 416.216 491.086 412.021 491.086 407.328C491.086 402.576 492.2 398.381 494.43 394.744C496.718 391.048 499.798 388.173 503.67 386.12C507.6 384.008 512.088 382.952 517.134 382.952C522.12 382.952 526.579 384.008 530.51 386.12C534.44 388.173 537.52 391.019 539.75 394.656C541.979 398.293 543.094 402.517 543.094 407.328C543.094 412.021 541.979 416.216 539.75 419.912C537.52 423.549 534.44 426.424 530.51 428.536C526.579 430.648 522.12 431.704 517.134 431.704ZM517.134 420.44C519.422 420.44 521.475 419.912 523.294 418.856C525.112 417.8 526.55 416.304 527.606 414.368C528.662 412.373 529.19 410.027 529.19 407.328C529.19 404.571 528.662 402.224 527.606 400.288C526.55 398.352 525.112 396.856 523.294 395.8C521.475 394.744 519.422 394.216 517.134 394.216C514.846 394.216 512.792 394.744 510.974 395.8C509.155 396.856 507.688 398.352 506.574 400.288C505.518 402.224 504.99 404.571 504.99 407.328C504.99 410.027 505.518 412.373 506.574 414.368C507.688 416.304 509.155 417.8 510.974 418.856C512.792 419.912 514.846 420.44 517.134 420.44ZM572.246 431.704C568.315 431.704 564.795 430.941 561.686 429.416C558.635 427.891 556.259 425.573 554.558 422.464C552.856 419.296 552.006 415.277 552.006 410.408V383.656H565.734V408.384C565.734 412.315 566.555 415.219 568.198 417.096C569.899 418.915 572.275 419.824 575.326 419.824C577.438 419.824 579.315 419.384 580.958 418.504C582.6 417.565 583.891 416.157 584.83 414.28C585.768 412.344 586.238 409.939 586.238 407.064V383.656H599.966V431H586.942V417.976L589.318 421.76C587.734 425.045 585.387 427.539 582.278 429.24C579.227 430.883 575.883 431.704 572.246 431.704ZM612.684 431V383.656H625.796V397.032L623.948 393.16C625.356 389.816 627.614 387.293 630.724 385.592C633.833 383.832 637.617 382.952 642.076 382.952V395.624C641.489 395.565 640.961 395.536 640.492 395.536C640.022 395.477 639.524 395.448 638.996 395.448C635.241 395.448 632.19 396.533 629.844 398.704C627.556 400.816 626.412 404.131 626.412 408.648V431H612.684ZM676.472 431V369.4H703.136C708.651 369.4 713.403 370.309 717.392 372.128C721.381 373.888 724.461 376.44 726.632 379.784C728.803 383.128 729.888 387.117 729.888 391.752C729.888 396.328 728.803 400.288 726.632 403.632C724.461 406.976 721.381 409.557 717.392 411.376C713.403 413.136 708.651 414.016 703.136 414.016H684.392L690.728 407.592V431H676.472ZM690.728 409.176L684.392 402.4H702.344C706.744 402.4 710.029 401.461 712.2 399.584C714.371 397.707 715.456 395.096 715.456 391.752C715.456 388.349 714.371 385.709 712.2 383.832C710.029 381.955 706.744 381.016 702.344 381.016H684.392L690.728 374.24V409.176ZM762.508 431.704C757.11 431.704 752.358 430.648 748.252 428.536C744.204 426.424 741.065 423.549 738.836 419.912C736.606 416.216 735.492 412.021 735.492 407.328C735.492 402.576 736.577 398.381 738.748 394.744C740.977 391.048 743.998 388.173 747.812 386.12C751.625 384.008 755.937 382.952 760.748 382.952C765.382 382.952 769.548 383.949 773.244 385.944C776.998 387.88 779.961 390.696 782.132 394.392C784.302 398.029 785.388 402.4 785.388 407.504C785.388 408.032 785.358 408.648 785.3 409.352C785.241 409.997 785.182 410.613 785.124 411.2H746.668V403.192H777.908L772.628 405.568C772.628 403.104 772.129 400.963 771.132 399.144C770.134 397.325 768.756 395.917 766.996 394.92C765.236 393.864 763.182 393.336 760.836 393.336C758.489 393.336 756.406 393.864 754.588 394.92C752.828 395.917 751.449 397.355 750.452 399.232C749.454 401.051 748.956 403.221 748.956 405.744V407.856C748.956 410.437 749.513 412.725 750.628 414.72C751.801 416.656 753.414 418.152 755.468 419.208C757.58 420.205 760.044 420.704 762.86 420.704C765.382 420.704 767.582 420.323 769.46 419.56C771.396 418.797 773.156 417.653 774.74 416.128L782.044 424.048C779.873 426.512 777.145 428.419 773.86 429.768C770.574 431.059 766.79 431.704 762.508 431.704ZM794.527 431V383.656H807.639V397.032L805.791 393.16C807.199 389.816 809.458 387.293 812.567 385.592C815.677 383.832 819.461 382.952 823.919 382.952V395.624C823.333 395.565 822.805 395.536 822.335 395.536C821.866 395.477 821.367 395.448 820.839 395.448C817.085 395.448 814.034 396.533 811.687 398.704C809.399 400.816 808.255 404.131 808.255 408.648V431H794.527ZM834.098 431V382.6C834.098 377.261 835.682 373.008 838.85 369.84C842.018 366.613 846.535 365 852.402 365C854.397 365 856.303 365.205 858.122 365.616C859.999 366.027 861.583 366.672 862.874 367.552L859.266 377.496C858.503 376.968 857.653 376.557 856.714 376.264C855.775 375.971 854.778 375.824 853.722 375.824C851.727 375.824 850.173 376.411 849.058 377.584C848.002 378.699 847.474 380.4 847.474 382.688V387.088L847.826 392.984V431H834.098ZM826.794 395.272V384.712H859.618V395.272H826.794ZM889.352 431.704C883.954 431.704 879.202 430.648 875.096 428.536C871.048 426.424 867.909 423.549 865.68 419.912C863.45 416.216 862.336 412.021 862.336 407.328C862.336 402.576 863.421 398.381 865.592 394.744C867.821 391.048 870.842 388.173 874.656 386.12C878.469 384.008 882.781 382.952 887.592 382.952C892.226 382.952 896.392 383.949 900.088 385.944C903.842 387.88 906.805 390.696 908.976 394.392C911.146 398.029 912.232 402.4 912.232 407.504C912.232 408.032 912.202 408.648 912.144 409.352C912.085 409.997 912.026 410.613 911.968 411.2H873.512V403.192H904.752L899.472 405.568C899.472 403.104 898.973 400.963 897.976 399.144C896.978 397.325 895.6 395.917 893.84 394.92C892.08 393.864 890.026 393.336 887.68 393.336C885.333 393.336 883.25 393.864 881.432 394.92C879.672 395.917 878.293 397.355 877.296 399.232C876.298 401.051 875.8 403.221 875.8 405.744V407.856C875.8 410.437 876.357 412.725 877.472 414.72C878.645 416.656 880.258 418.152 882.312 419.208C884.424 420.205 886.888 420.704 889.704 420.704C892.226 420.704 894.426 420.323 896.304 419.56C898.24 418.797 900 417.653 901.584 416.128L908.888 424.048C906.717 426.512 903.989 428.419 900.704 429.768C897.418 431.059 893.634 431.704 889.352 431.704ZM944.251 431.704C939.147 431.704 934.6 430.677 930.611 428.624C926.622 426.512 923.483 423.608 921.195 419.912C918.966 416.216 917.851 412.021 917.851 407.328C917.851 402.576 918.966 398.381 921.195 394.744C923.483 391.048 926.622 388.173 930.611 386.12C934.6 384.008 939.147 382.952 944.251 382.952C949.238 382.952 953.579 384.008 957.275 386.12C960.971 388.173 963.699 391.136 965.459 395.008L954.811 400.728C953.579 398.499 952.024 396.856 950.147 395.8C948.328 394.744 946.334 394.216 944.163 394.216C941.816 394.216 939.704 394.744 937.827 395.8C935.95 396.856 934.454 398.352 933.339 400.288C932.283 402.224 931.755 404.571 931.755 407.328C931.755 410.085 932.283 412.432 933.339 414.368C934.454 416.304 935.95 417.8 937.827 418.856C939.704 419.912 941.816 420.44 944.163 420.44C946.334 420.44 948.328 419.941 950.147 418.944C952.024 417.888 953.579 416.216 954.811 413.928L965.459 419.736C963.699 423.549 960.971 426.512 957.275 428.624C953.579 430.677 949.238 431.704 944.251 431.704ZM993.411 431.704C987.838 431.704 983.496 430.296 980.387 427.48C977.278 424.605 975.723 420.352 975.723 414.72V373.184H989.451V414.544C989.451 416.539 989.979 418.093 991.035 419.208C992.091 420.264 993.528 420.792 995.347 420.792C997.518 420.792 999.366 420.205 1000.89 419.032L1004.59 428.712C1003.18 429.709 1001.48 430.472 999.483 431C997.547 431.469 995.523 431.704 993.411 431.704ZM968.419 395.272V384.712H1001.24V395.272H968.419ZM365.597 660.056C360.845 660.056 356.415 659.293 352.309 657.768C348.261 656.184 344.741 653.955 341.748 651.08C338.757 648.205 336.41 644.832 334.709 640.96C333.066 637.088 332.245 632.835 332.245 628.2C332.245 623.565 333.066 619.312 334.709 615.44C336.41 611.568 338.757 608.195 341.748 605.32C344.799 602.445 348.349 600.245 352.397 598.72C356.445 597.136 360.874 596.344 365.685 596.344C371.023 596.344 375.834 597.283 380.117 599.16C384.458 600.979 388.095 603.677 391.029 607.256L381.877 615.704C379.765 613.299 377.418 611.509 374.837 610.336C372.255 609.104 369.439 608.488 366.389 608.488C363.514 608.488 360.874 608.957 358.469 609.896C356.063 610.835 353.981 612.184 352.221 613.944C350.461 615.704 349.082 617.787 348.085 620.192C347.146 622.597 346.677 625.267 346.677 628.2C346.677 631.133 347.146 633.803 348.085 636.208C349.082 638.613 350.461 640.696 352.221 642.456C353.981 644.216 356.063 645.565 358.469 646.504C360.874 647.443 363.514 647.912 366.389 647.912C369.439 647.912 372.255 647.325 374.837 646.152C377.418 644.92 379.765 643.072 381.877 640.608L391.029 649.056C388.095 652.635 384.458 655.363 380.117 657.24C375.834 659.117 370.994 660.056 365.597 660.056ZM420.583 659.704C415.537 659.704 411.049 658.648 407.119 656.536C403.247 654.424 400.167 651.549 397.879 647.912C395.649 644.216 394.535 640.021 394.535 635.328C394.535 630.576 395.649 626.381 397.879 622.744C400.167 619.048 403.247 616.173 407.119 614.12C411.049 612.008 415.537 610.952 420.583 610.952C425.569 610.952 430.028 612.008 433.959 614.12C437.889 616.173 440.969 619.019 443.199 622.656C445.428 626.293 446.543 630.517 446.543 635.328C446.543 640.021 445.428 644.216 443.199 647.912C440.969 651.549 437.889 654.424 433.959 656.536C430.028 658.648 425.569 659.704 420.583 659.704ZM420.583 648.44C422.871 648.44 424.924 647.912 426.743 646.856C428.561 645.8 429.999 644.304 431.055 642.368C432.111 640.373 432.639 638.027 432.639 635.328C432.639 632.571 432.111 630.224 431.055 628.288C429.999 626.352 428.561 624.856 426.743 623.8C424.924 622.744 422.871 622.216 420.583 622.216C418.295 622.216 416.241 622.744 414.423 623.8C412.604 624.856 411.137 626.352 410.023 628.288C408.967 630.224 408.439 632.571 408.439 635.328C408.439 638.027 408.967 640.373 410.023 642.368C411.137 644.304 412.604 645.8 414.423 646.856C416.241 647.912 418.295 648.44 420.583 648.44ZM484.495 610.952C488.249 610.952 491.593 611.715 494.527 613.24C497.519 614.707 499.865 616.995 501.567 620.104C503.268 623.155 504.119 627.085 504.119 631.896V659H490.391V634.008C490.391 630.195 489.54 627.379 487.839 625.56C486.196 623.741 483.849 622.832 480.799 622.832C478.628 622.832 476.663 623.301 474.903 624.24C473.201 625.12 471.852 626.499 470.855 628.376C469.916 630.253 469.447 632.659 469.447 635.592V659H455.719V611.656H468.831V624.768L466.367 620.808C468.068 617.64 470.503 615.205 473.671 613.504C476.839 611.803 480.447 610.952 484.495 610.952ZM545.339 610.952C549.093 610.952 552.437 611.715 555.371 613.24C558.363 614.707 560.709 616.995 562.411 620.104C564.112 623.155 564.963 627.085 564.963 631.896V659H551.235V634.008C551.235 630.195 550.384 627.379 548.683 625.56C547.04 623.741 544.693 622.832 541.643 622.832C539.472 622.832 537.507 623.301 535.747 624.24C534.045 625.12 532.696 626.499 531.699 628.376C530.76 630.253 530.291 632.659 530.291 635.592V659H516.563V611.656H529.675V624.768L527.211 620.808C528.912 617.64 531.347 615.205 534.515 613.504C537.683 611.803 541.291 610.952 545.339 610.952ZM601.246 659.704C595.849 659.704 591.097 658.648 586.99 656.536C582.942 654.424 579.803 651.549 577.574 647.912C575.345 644.216 574.23 640.021 574.23 635.328C574.23 630.576 575.315 626.381 577.486 622.744C579.715 619.048 582.737 616.173 586.55 614.12C590.363 612.008 594.675 610.952 599.486 610.952C604.121 610.952 608.286 611.949 611.982 613.944C615.737 615.88 618.699 618.696 620.87 622.392C623.041 626.029 624.126 630.4 624.126 635.504C624.126 636.032 624.097 636.648 624.038 637.352C623.979 637.997 623.921 638.613 623.862 639.2H585.406V631.192H616.646L611.366 633.568C611.366 631.104 610.867 628.963 609.87 627.144C608.873 625.325 607.494 623.917 605.734 622.92C603.974 621.864 601.921 621.336 599.574 621.336C597.227 621.336 595.145 621.864 593.326 622.92C591.566 623.917 590.187 625.355 589.19 627.232C588.193 629.051 587.694 631.221 587.694 633.744V635.856C587.694 638.437 588.251 640.725 589.366 642.72C590.539 644.656 592.153 646.152 594.206 647.208C596.318 648.205 598.782 648.704 601.598 648.704C604.121 648.704 606.321 648.323 608.198 647.56C610.134 646.797 611.894 645.653 613.478 644.128L620.782 652.048C618.611 654.512 615.883 656.419 612.598 657.768C609.313 659.059 605.529 659.704 601.246 659.704ZM656.146 659.704C651.042 659.704 646.495 658.677 642.506 656.624C638.516 654.512 635.378 651.608 633.09 647.912C630.86 644.216 629.746 640.021 629.746 635.328C629.746 630.576 630.86 626.381 633.09 622.744C635.378 619.048 638.516 616.173 642.506 614.12C646.495 612.008 651.042 610.952 656.146 610.952C661.132 610.952 665.474 612.008 669.17 614.12C672.866 616.173 675.594 619.136 677.354 623.008L666.706 628.728C665.474 626.499 663.919 624.856 662.042 623.8C660.223 622.744 658.228 622.216 656.058 622.216C653.711 622.216 651.599 622.744 649.722 623.8C647.844 624.856 646.348 626.352 645.234 628.288C644.178 630.224 643.65 632.571 643.65 635.328C643.65 638.085 644.178 640.432 645.234 642.368C646.348 644.304 647.844 645.8 649.722 646.856C651.599 647.912 653.711 648.44 656.058 648.44C658.228 648.44 660.223 647.941 662.042 646.944C663.919 645.888 665.474 644.216 666.706 641.928L677.354 647.736C675.594 651.549 672.866 654.512 669.17 656.624C665.474 658.677 661.132 659.704 656.146 659.704ZM705.305 659.704C699.732 659.704 695.391 658.296 692.281 655.48C689.172 652.605 687.617 648.352 687.617 642.72V601.184H701.345V642.544C701.345 644.539 701.873 646.093 702.929 647.208C703.985 648.264 705.423 648.792 707.241 648.792C709.412 648.792 711.26 648.205 712.785 647.032L716.481 656.712C715.073 657.709 713.372 658.472 711.377 659C709.441 659.469 707.417 659.704 705.305 659.704ZM680.313 623.272V612.712H713.137V623.272H680.313ZM764.861 659L744.709 597.4H759.493L777.005 651.96H769.613L787.917 597.4H801.117L818.717 651.96H811.589L829.541 597.4H843.181L823.029 659H807.717L792.141 611.128H796.189L780.173 659H764.861ZM850.945 659V611.656H864.673V659H850.945ZM857.809 605.056C855.287 605.056 853.233 604.323 851.649 602.856C850.065 601.389 849.273 599.571 849.273 597.4C849.273 595.229 850.065 593.411 851.649 591.944C853.233 590.477 855.287 589.744 857.809 589.744C860.332 589.744 862.385 590.448 863.969 591.856C865.553 593.205 866.345 594.965 866.345 597.136C866.345 599.424 865.553 601.331 863.969 602.856C862.444 604.323 860.391 605.056 857.809 605.056ZM896.774 659.704C891.201 659.704 886.859 658.296 883.75 655.48C880.641 652.605 879.086 648.352 879.086 642.72V601.184H892.814V642.544C892.814 644.539 893.342 646.093 894.398 647.208C895.454 648.264 896.891 648.792 898.71 648.792C900.881 648.792 902.729 648.205 904.254 647.032L907.95 656.712C906.542 657.709 904.841 658.472 902.846 659C900.91 659.469 898.886 659.704 896.774 659.704ZM871.782 623.272V612.712H904.606V623.272H871.782ZM944.432 610.952C948.187 610.952 951.531 611.715 954.464 613.24C957.456 614.707 959.803 616.995 961.504 620.104C963.206 623.155 964.056 627.085 964.056 631.896V659H950.328V634.008C950.328 630.195 949.478 627.379 947.776 625.56C946.134 623.741 943.787 622.832 940.736 622.832C938.566 622.832 936.6 623.301 934.84 624.24C933.139 625.12 931.79 626.499 930.792 628.376C929.854 630.253 929.384 632.659 929.384 635.592V659H915.656V593.704H929.384V624.768L926.304 620.808C928.006 617.64 930.44 615.205 933.608 613.504C936.776 611.803 940.384 610.952 944.432 610.952ZM1029.76 660.056C1021.02 660.056 1014.18 657.621 1009.25 652.752C1004.33 647.883 1001.86 640.931 1001.86 631.896V597.4H1016.12V631.368C1016.12 637.235 1017.32 641.459 1019.73 644.04C1022.13 646.621 1025.5 647.912 1029.85 647.912C1034.19 647.912 1037.56 646.621 1039.97 644.04C1042.37 641.459 1043.57 637.235 1043.57 631.368V597.4H1057.65V631.896C1057.65 640.931 1055.19 647.883 1050.26 652.752C1045.33 657.621 1038.5 660.056 1029.76 660.056ZM1086.7 659.704C1082.65 659.704 1078.75 659.235 1075 658.296C1071.3 657.299 1068.37 656.067 1066.2 654.6L1070.77 644.744C1072.94 646.093 1075.5 647.208 1078.43 648.088C1081.42 648.909 1084.35 649.32 1087.23 649.32C1090.4 649.32 1092.63 648.939 1093.92 648.176C1095.27 647.413 1095.94 646.357 1095.94 645.008C1095.94 643.893 1095.41 643.072 1094.36 642.544C1093.36 641.957 1092.01 641.517 1090.31 641.224C1088.61 640.931 1086.73 640.637 1084.68 640.344C1082.68 640.051 1080.66 639.669 1078.61 639.2C1076.55 638.672 1074.67 637.909 1072.97 636.912C1071.27 635.915 1069.89 634.565 1068.84 632.864C1067.84 631.163 1067.34 628.963 1067.34 626.264C1067.34 623.272 1068.19 620.632 1069.89 618.344C1071.65 616.056 1074.18 614.267 1077.46 612.976C1080.75 611.627 1084.68 610.952 1089.25 610.952C1092.48 610.952 1095.77 611.304 1099.11 612.008C1102.45 612.712 1105.24 613.739 1107.47 615.088L1102.89 624.856C1100.61 623.507 1098.29 622.597 1095.94 622.128C1093.65 621.6 1091.42 621.336 1089.25 621.336C1086.2 621.336 1083.97 621.747 1082.57 622.568C1081.16 623.389 1080.45 624.445 1080.45 625.736C1080.45 626.909 1080.95 627.789 1081.95 628.376C1083.01 628.963 1084.38 629.432 1086.09 629.784C1087.79 630.136 1089.63 630.459 1091.63 630.752C1093.68 630.987 1095.74 631.368 1097.79 631.896C1099.84 632.424 1101.69 633.187 1103.33 634.184C1105.03 635.123 1106.41 636.443 1107.47 638.144C1108.53 639.787 1109.05 641.957 1109.05 644.656C1109.05 647.589 1108.17 650.2 1106.41 652.488C1104.65 654.717 1102.1 656.477 1098.76 657.768C1095.47 659.059 1091.45 659.704 1086.7 659.704ZM590.232 773V723.016H570.52V711.4H624.2V723.016H604.488V773H590.232ZM648.618 773.704C643.573 773.704 639.085 772.648 635.154 770.536C631.282 768.424 628.202 765.549 625.914 761.912C623.685 758.216 622.57 754.021 622.57 749.328C622.57 744.576 623.685 740.381 625.914 736.744C628.202 733.048 631.282 730.173 635.154 728.12C639.085 726.008 643.573 724.952 648.618 724.952C653.605 724.952 658.063 726.008 661.994 728.12C665.925 730.173 669.005 733.019 671.234 736.656C673.463 740.293 674.578 744.517 674.578 749.328C674.578 754.021 673.463 758.216 671.234 761.912C669.005 765.549 665.925 768.424 661.994 770.536C658.063 772.648 653.605 773.704 648.618 773.704ZM648.618 762.44C650.906 762.44 652.959 761.912 654.778 760.856C656.597 759.8 658.034 758.304 659.09 756.368C660.146 754.373 660.674 752.027 660.674 749.328C660.674 746.571 660.146 744.224 659.09 742.288C658.034 740.352 656.597 738.856 654.778 737.8C652.959 736.744 650.906 736.216 648.618 736.216C646.33 736.216 644.277 736.744 642.458 737.8C640.639 738.856 639.173 740.352 638.058 742.288C637.002 744.224 636.474 746.571 636.474 749.328C636.474 752.027 637.002 754.373 638.058 756.368C639.173 758.304 640.639 759.8 642.458 760.856C644.277 761.912 646.33 762.44 648.618 762.44ZM704.082 773.704C699.623 773.704 695.605 772.707 692.026 770.712C688.447 768.659 685.602 765.813 683.49 762.176C681.437 758.539 680.41 754.256 680.41 749.328C680.41 744.341 681.437 740.029 683.49 736.392C685.602 732.755 688.447 729.939 692.026 727.944C695.605 725.949 699.623 724.952 704.082 724.952C708.071 724.952 711.562 725.832 714.554 727.592C717.546 729.352 719.863 732.021 721.506 735.6C723.149 739.179 723.97 743.755 723.97 749.328C723.97 754.843 723.178 759.419 721.594 763.056C720.01 766.635 717.722 769.304 714.73 771.064C711.797 772.824 708.247 773.704 704.082 773.704ZM706.458 762.44C708.687 762.44 710.711 761.912 712.53 760.856C714.349 759.8 715.786 758.304 716.842 756.368C717.957 754.373 718.514 752.027 718.514 749.328C718.514 746.571 717.957 744.224 716.842 742.288C715.786 740.352 714.349 738.856 712.53 737.8C710.711 736.744 708.687 736.216 706.458 736.216C704.17 736.216 702.117 736.744 700.298 737.8C698.479 738.856 697.013 740.352 695.898 742.288C694.842 744.224 694.314 746.571 694.314 749.328C694.314 752.027 694.842 754.373 695.898 756.368C697.013 758.304 698.479 759.8 700.298 760.856C702.117 761.912 704.17 762.44 706.458 762.44ZM718.866 773V763.32L719.13 749.24L718.25 735.248V707.704H731.978V773H718.866ZM773.724 773V763.76L772.844 761.736V745.192C772.844 742.259 771.934 739.971 770.116 738.328C768.356 736.685 765.628 735.864 761.932 735.864C759.409 735.864 756.916 736.275 754.452 737.096C752.046 737.859 749.993 738.915 748.292 740.264L743.364 730.672C745.945 728.853 749.054 727.445 752.692 726.448C756.329 725.451 760.025 724.952 763.78 724.952C770.996 724.952 776.598 726.653 780.588 730.056C784.577 733.459 786.572 738.768 786.572 745.984V773H773.724ZM759.292 773.704C755.596 773.704 752.428 773.088 749.788 771.856C747.148 770.565 745.124 768.835 743.716 766.664C742.308 764.493 741.604 762.059 741.604 759.36C741.604 756.544 742.278 754.08 743.628 751.968C745.036 749.856 747.236 748.213 750.228 747.04C753.22 745.808 757.121 745.192 761.932 745.192H774.516V753.2H763.428C760.201 753.2 757.972 753.728 756.74 754.784C755.566 755.84 754.98 757.16 754.98 758.744C754.98 760.504 755.654 761.912 757.004 762.968C758.412 763.965 760.318 764.464 762.724 764.464C765.012 764.464 767.065 763.936 768.884 762.88C770.702 761.765 772.022 760.152 772.844 758.04L774.956 764.376C773.958 767.427 772.14 769.744 769.5 771.328C766.86 772.912 763.457 773.704 759.292 773.704ZM804.121 790.776C801.657 790.776 799.222 790.395 796.817 789.632C794.411 788.869 792.446 787.813 790.921 786.464L795.937 776.696C796.993 777.635 798.195 778.368 799.545 778.896C800.953 779.424 802.331 779.688 803.681 779.688C805.617 779.688 807.142 779.219 808.257 778.28C809.43 777.4 810.486 775.904 811.425 773.792L813.889 767.984L814.945 766.488L831.929 725.656H845.129L823.745 775.904C822.219 779.717 820.459 782.709 818.465 784.88C816.529 787.051 814.358 788.576 811.953 789.456C809.606 790.336 806.995 790.776 804.121 790.776ZM812.217 774.848L791.097 725.656H805.265L821.633 765.256L812.217 774.848ZM851.699 751.616L848.971 711.4H865.339L862.611 751.616H851.699ZM857.155 773.704C854.691 773.704 852.667 772.912 851.083 771.328C849.499 769.744 848.707 767.867 848.707 765.696C848.707 763.467 849.499 761.619 851.083 760.152C852.667 758.627 854.691 757.864 857.155 757.864C859.677 757.864 861.701 758.627 863.227 760.152C864.811 761.619 865.603 763.467 865.603 765.696C865.603 767.867 864.811 769.744 863.227 771.328C861.701 772.912 859.677 773.704 857.155 773.704Z" fill="#014751"/>
<path d="M440.685 545L468.141 483.4H482.221L509.765 545H494.805L472.277 490.616H477.909L455.293 545H440.685ZM454.413 531.8L458.197 520.976H489.877L493.749 531.8H454.413ZM543.172 545.704C539.182 545.704 535.692 544.824 532.7 543.064C529.708 541.304 527.361 538.635 525.66 535.056C524.017 531.419 523.196 526.843 523.196 521.328C523.196 515.755 523.988 511.179 525.572 507.6C527.156 504.021 529.444 501.352 532.436 499.592C535.428 497.832 539.006 496.952 543.172 496.952C547.63 496.952 551.62 497.979 555.14 500.032C558.718 502.027 561.534 504.843 563.588 508.48C565.7 512.117 566.756 516.4 566.756 521.328C566.756 526.315 565.7 530.627 563.588 534.264C561.534 537.901 558.718 540.717 555.14 542.712C551.62 544.707 547.63 545.704 543.172 545.704ZM515.188 562.072V497.656H528.3V507.336L528.036 521.416L528.916 535.408V562.072H515.188ZM540.796 534.44C543.084 534.44 545.108 533.912 546.868 532.856C548.686 531.8 550.124 530.304 551.18 528.368C552.294 526.373 552.852 524.027 552.852 521.328C552.852 518.571 552.294 516.224 551.18 514.288C550.124 512.352 548.686 510.856 546.868 509.8C545.108 508.744 543.084 508.216 540.796 508.216C538.508 508.216 536.454 508.744 534.636 509.8C532.817 510.856 531.38 512.352 530.324 514.288C529.268 516.224 528.74 518.571 528.74 521.328C528.74 524.027 529.268 526.373 530.324 528.368C531.38 530.304 532.817 531.8 534.636 532.856C536.454 533.912 538.508 534.44 540.796 534.44ZM604.212 545V535.76L603.332 533.736V517.192C603.332 514.259 602.423 511.971 600.604 510.328C598.844 508.685 596.116 507.864 592.42 507.864C589.897 507.864 587.404 508.275 584.94 509.096C582.535 509.859 580.481 510.915 578.78 512.264L573.852 502.672C576.433 500.853 579.543 499.445 583.18 498.448C586.817 497.451 590.513 496.952 594.268 496.952C601.484 496.952 607.087 498.653 611.076 502.056C615.065 505.459 617.06 510.768 617.06 517.984V545H604.212ZM589.78 545.704C586.084 545.704 582.916 545.088 580.276 543.856C577.636 542.565 575.612 540.835 574.204 538.664C572.796 536.493 572.092 534.059 572.092 531.36C572.092 528.544 572.767 526.08 574.116 523.968C575.524 521.856 577.724 520.213 580.716 519.04C583.708 517.808 587.609 517.192 592.42 517.192H605.004V525.2H593.916C590.689 525.2 588.46 525.728 587.228 526.784C586.055 527.84 585.468 529.16 585.468 530.744C585.468 532.504 586.143 533.912 587.492 534.968C588.9 535.965 590.807 536.464 593.212 536.464C595.5 536.464 597.553 535.936 599.372 534.88C601.191 533.765 602.511 532.152 603.332 530.04L605.444 536.376C604.447 539.427 602.628 541.744 599.988 543.328C597.348 544.912 593.945 545.704 589.78 545.704ZM629.484 545V497.656H642.596V511.032L640.748 507.16C642.156 503.816 644.415 501.293 647.524 499.592C650.634 497.832 654.418 496.952 658.876 496.952V509.624C658.29 509.565 657.762 509.536 657.292 509.536C656.823 509.477 656.324 509.448 655.796 509.448C652.042 509.448 648.991 510.533 646.644 512.704C644.356 514.816 643.212 518.131 643.212 522.648V545H629.484ZM688.032 545.704C682.459 545.704 678.117 544.296 675.008 541.48C671.899 538.605 670.344 534.352 670.344 528.72V487.184H684.072V528.544C684.072 530.539 684.6 532.093 685.656 533.208C686.712 534.264 688.149 534.792 689.968 534.792C692.139 534.792 693.987 534.205 695.512 533.032L699.208 542.712C697.8 543.709 696.099 544.472 694.104 545C692.168 545.469 690.144 545.704 688.032 545.704ZM663.04 509.272V498.712H695.864V509.272H663.04ZM767.546 496.952C771.301 496.952 774.615 497.715 777.49 499.24C780.423 500.707 782.711 502.995 784.354 506.104C786.055 509.155 786.906 513.085 786.906 517.896V545H773.178V520.008C773.178 516.195 772.386 513.379 770.802 511.56C769.218 509.741 766.989 508.832 764.114 508.832C762.119 508.832 760.33 509.301 758.746 510.24C757.162 511.12 755.93 512.469 755.05 514.288C754.17 516.107 753.73 518.424 753.73 521.24V545H740.002V520.008C740.002 516.195 739.21 513.379 737.626 511.56C736.101 509.741 733.901 508.832 731.026 508.832C729.031 508.832 727.242 509.301 725.658 510.24C724.074 511.12 722.842 512.469 721.962 514.288C721.082 516.107 720.642 518.424 720.642 521.24V545H706.914V497.656H720.026V510.592L717.562 506.808C719.205 503.581 721.522 501.147 724.514 499.504C727.565 497.803 731.026 496.952 734.898 496.952C739.239 496.952 743.023 498.067 746.25 500.296C749.535 502.467 751.706 505.811 752.762 510.328L747.922 509.008C749.506 505.312 752.029 502.379 755.49 500.208C759.01 498.037 763.029 496.952 767.546 496.952ZM823.051 545.704C817.653 545.704 812.901 544.648 808.795 542.536C804.747 540.424 801.608 537.549 799.379 533.912C797.149 530.216 796.035 526.021 796.035 521.328C796.035 516.576 797.12 512.381 799.291 508.744C801.52 505.048 804.541 502.173 808.355 500.12C812.168 498.008 816.48 496.952 821.291 496.952C825.925 496.952 830.091 497.949 833.787 499.944C837.541 501.88 840.504 504.696 842.675 508.392C844.845 512.029 845.931 516.4 845.931 521.504C845.931 522.032 845.901 522.648 845.843 523.352C845.784 523.997 845.725 524.613 845.667 525.2H807.211V517.192H838.451L833.171 519.568C833.171 517.104 832.672 514.963 831.675 513.144C830.677 511.325 829.299 509.917 827.539 508.92C825.779 507.864 823.725 507.336 821.379 507.336C819.032 507.336 816.949 507.864 815.131 508.92C813.371 509.917 811.992 511.355 810.995 513.232C809.997 515.051 809.499 517.221 809.499 519.744V521.856C809.499 524.437 810.056 526.725 811.171 528.72C812.344 530.656 813.957 532.152 816.011 533.208C818.123 534.205 820.587 534.704 823.403 534.704C825.925 534.704 828.125 534.323 830.003 533.56C831.939 532.797 833.699 531.653 835.283 530.128L842.587 538.048C840.416 540.512 837.688 542.419 834.403 543.768C831.117 545.059 827.333 545.704 823.051 545.704ZM883.846 496.952C887.601 496.952 890.945 497.715 893.878 499.24C896.87 500.707 899.217 502.995 900.918 506.104C902.62 509.155 903.47 513.085 903.47 517.896V545H889.742V520.008C889.742 516.195 888.892 513.379 887.19 511.56C885.548 509.741 883.201 508.832 880.15 508.832C877.98 508.832 876.014 509.301 874.254 510.24C872.553 511.12 871.204 512.499 870.206 514.376C869.268 516.253 868.798 518.659 868.798 521.592V545H855.07V497.656H868.182V510.768L865.718 506.808C867.42 503.64 869.854 501.205 873.022 499.504C876.19 497.803 879.798 496.952 883.846 496.952ZM935.274 545.704C929.701 545.704 925.359 544.296 922.25 541.48C919.141 538.605 917.586 534.352 917.586 528.72V487.184H931.314V528.544C931.314 530.539 931.842 532.093 932.898 533.208C933.954 534.264 935.391 534.792 937.21 534.792C939.381 534.792 941.229 534.205 942.754 533.032L946.45 542.712C945.042 543.709 943.341 544.472 941.346 545C939.41 545.469 937.386 545.704 935.274 545.704ZM910.282 509.272V498.712H943.106V509.272H910.282ZM965.799 523.616C965.799 521.563 966.122 519.744 966.767 518.16C967.471 516.576 968.322 515.168 969.319 513.936C970.375 512.704 971.49 511.56 972.663 510.504C973.836 509.448 974.922 508.451 975.919 507.512C976.975 506.515 977.826 505.488 978.471 504.432C979.175 503.376 979.527 502.203 979.527 500.912C979.527 498.8 978.647 497.099 976.887 495.808C975.186 494.517 972.898 493.872 970.023 493.872C967.266 493.872 964.802 494.459 962.631 495.632C960.46 496.747 958.671 498.331 957.263 500.384L946.615 494.136C948.962 490.557 952.218 487.712 956.383 485.6C960.548 483.429 965.594 482.344 971.519 482.344C975.919 482.344 979.791 482.989 983.135 484.28C986.479 485.512 989.09 487.331 990.967 489.736C992.903 492.141 993.871 495.104 993.871 498.624C993.871 500.912 993.519 502.936 992.815 504.696C992.111 506.456 991.202 507.981 990.087 509.272C988.972 510.563 987.77 511.765 986.479 512.88C985.247 513.995 984.074 515.08 982.959 516.136C981.844 517.192 980.906 518.307 980.143 519.48C979.439 520.653 979.087 522.032 979.087 523.616H965.799ZM972.487 545.704C970.023 545.704 967.999 544.912 966.415 543.328C964.831 541.744 964.039 539.867 964.039 537.696C964.039 535.467 964.831 533.619 966.415 532.152C967.999 530.627 970.023 529.864 972.487 529.864C975.01 529.864 977.034 530.627 978.559 532.152C980.143 533.619 980.935 535.467 980.935 537.696C980.935 539.867 980.143 541.744 978.559 543.328C977.034 544.912 975.01 545.704 972.487 545.704Z" fill="#F5F5F5"/>
</svg>
