<svg width="31" height="26" viewBox="0 0 31 26" fill="none" xmlns="http://www.w3.org/2000/svg">
<path d="M26.641 3.76234C25.9692 3.1236 25.1716 2.6169 24.2936 2.2712C23.4157 1.92549 22.4747 1.74756 21.5244 1.74756C20.5741 1.74756 19.6331 1.92549 18.7552 2.2712C17.8772 2.6169 17.0796 3.1236 16.4078 3.76234L15.0135 5.08734L13.6193 3.76234C12.2622 2.47273 10.4217 1.74823 8.50262 1.74823C6.58351 1.74823 4.743 2.47273 3.38598 3.76234C2.02897 5.05196 1.2666 6.80105 1.2666 8.62484C1.2666 10.4486 2.02897 12.1977 3.38598 13.4873L4.78023 14.8123L15.0135 24.5373L25.2468 14.8123L26.641 13.4873C27.3132 12.8489 27.8463 12.0909 28.2101 11.2565C28.5739 10.4222 28.7611 9.52795 28.7611 8.62484C28.7611 7.72173 28.5739 6.82747 28.2101 5.99315C27.8463 5.15882 27.3132 4.40079 26.641 3.76234Z" fill="#4F8F92" stroke="#4F8F92" stroke-width="2.5" stroke-linecap="round" stroke-linejoin="round"/>
</svg>
