<svg width="31" height="26" viewBox="0 0 31 26" fill="none" xmlns="http://www.w3.org/2000/svg">
<path d="M27.5389 3.76234C26.8647 3.1236 26.0641 2.6169 25.183 2.2712C24.3019 1.92549 23.3574 1.74756 22.4037 1.74756C21.4499 1.74756 20.5055 1.92549 19.6244 2.2712C18.7433 2.6169 17.9427 3.1236 17.2684 3.76234L15.8691 5.08734L14.4698 3.76234C13.1079 2.47273 11.2607 1.74823 9.33458 1.74823C7.4085 1.74823 5.5613 2.47273 4.19935 3.76234C2.8374 5.05196 2.07227 6.80105 2.07227 8.62484C2.07227 10.4486 2.8374 12.1977 4.19935 13.4873L5.59867 14.8123L15.8691 24.5373L26.1396 14.8123L27.5389 13.4873C28.2135 12.8489 28.7486 12.0909 29.1137 11.2565C29.4788 10.4222 29.6667 9.52795 29.6667 8.62484C29.6667 7.72173 29.4788 6.82747 29.1137 5.99315C28.7486 5.15882 28.2135 4.40079 27.5389 3.76234V3.76234Z" stroke="#9A9A9A" stroke-width="2.5" stroke-linecap="round" stroke-linejoin="round"/>
</svg>
